<mxfile host="Electron" agent="Mozilla/5.0 (Windows NT 10.0; Win64; x64) AppleWebKit/537.36 (KHTML, like Gecko) draw.io/24.7.17 Chrome/128.0.6613.36 Electron/32.0.1 Safari/537.36" version="24.7.17">
  <diagram name="Page-1" id="KbGtQuOh6s3XNtctA3dP">
    <mxGraphModel dx="1311" dy="968" grid="1" gridSize="10" guides="1" tooltips="1" connect="1" arrows="1" fold="1" page="1" pageScale="1" pageWidth="850" pageHeight="1100" math="0" shadow="0">
      <root>
        <mxCell id="0" />
        <mxCell id="1" parent="0" />
        <mxCell id="cOocZkf1hTMngWwaIAUV-46" value="" style="rounded=0;whiteSpace=wrap;html=1;fillColor=#f5f5f5;gradientColor=#b3b3b3;strokeColor=#666666;" vertex="1" parent="1">
          <mxGeometry x="120" y="60" width="660" height="950" as="geometry" />
        </mxCell>
        <mxCell id="cOocZkf1hTMngWwaIAUV-2" value="" style="fontStyle=0;verticalAlign=top;align=center;spacingTop=-2;fillColor=#647687;rounded=0;whiteSpace=wrap;html=1;strokeColor=#314354;strokeWidth=4;dashed=1;container=1;collapsible=0;expand=0;recursiveResize=0;fontColor=#ffffff;" vertex="1" parent="1">
          <mxGeometry x="160" y="240" width="580" height="740" as="geometry" />
        </mxCell>
        <mxCell id="cOocZkf1hTMngWwaIAUV-6" value="Private Subnet" style="text;html=1;align=center;verticalAlign=middle;whiteSpace=wrap;rounded=0;" vertex="1" parent="cOocZkf1hTMngWwaIAUV-2">
          <mxGeometry x="10" y="210" width="60" height="30" as="geometry" />
        </mxCell>
        <mxCell id="cOocZkf1hTMngWwaIAUV-5" value="" style="endArrow=none;dashed=1;html=1;rounded=0;exitX=0;exitY=0.5;exitDx=0;exitDy=0;entryX=1.002;entryY=0.27;entryDx=0;entryDy=0;entryPerimeter=0;strokeWidth=3;" edge="1" parent="cOocZkf1hTMngWwaIAUV-2" target="cOocZkf1hTMngWwaIAUV-2">
          <mxGeometry width="50" height="50" relative="1" as="geometry">
            <mxPoint x="-1.1368683772161603e-13" y="200" as="sourcePoint" />
            <mxPoint x="530" y="200" as="targetPoint" />
          </mxGeometry>
        </mxCell>
        <mxCell id="cOocZkf1hTMngWwaIAUV-10" value="AKS" style="fontStyle=0;verticalAlign=top;align=center;spacingTop=-2;fillColor=#76608a;rounded=0;whiteSpace=wrap;html=1;strokeColor=#432D57;strokeWidth=4;dashed=1;container=1;collapsible=0;expand=0;recursiveResize=0;fontColor=#ffffff;" vertex="1" parent="cOocZkf1hTMngWwaIAUV-2">
          <mxGeometry x="22.5" y="310" width="535" height="390" as="geometry" />
        </mxCell>
        <mxCell id="cOocZkf1hTMngWwaIAUV-9" value="" style="image;sketch=0;aspect=fixed;html=1;points=[];align=center;fontSize=12;image=img/lib/mscae/Docker.svg;" vertex="1" parent="cOocZkf1hTMngWwaIAUV-10">
          <mxGeometry x="75" y="69" width="50" height="41" as="geometry" />
        </mxCell>
        <mxCell id="cOocZkf1hTMngWwaIAUV-15" value="" style="image;sketch=0;aspect=fixed;html=1;points=[];align=center;fontSize=12;image=img/lib/mscae/Docker.svg;" vertex="1" parent="cOocZkf1hTMngWwaIAUV-10">
          <mxGeometry x="435" y="69" width="50" height="41" as="geometry" />
        </mxCell>
        <mxCell id="cOocZkf1hTMngWwaIAUV-17" value="" style="image;sketch=0;aspect=fixed;html=1;points=[];align=center;fontSize=12;image=img/lib/mscae/Docker.svg;" vertex="1" parent="cOocZkf1hTMngWwaIAUV-10">
          <mxGeometry x="247.5" y="210" width="50" height="41" as="geometry" />
        </mxCell>
        <mxCell id="cOocZkf1hTMngWwaIAUV-19" value="" style="verticalLabelPosition=bottom;html=1;verticalAlign=top;align=center;strokeColor=none;fillColor=#00BEF2;shape=mxgraph.azure.sql_database_sql_azure;" vertex="1" parent="cOocZkf1hTMngWwaIAUV-10">
          <mxGeometry x="256" y="330" width="47.5" height="50" as="geometry" />
        </mxCell>
        <mxCell id="cOocZkf1hTMngWwaIAUV-23" value="Profile Managment&amp;nbsp;" style="text;html=1;align=center;verticalAlign=middle;whiteSpace=wrap;rounded=0;" vertex="1" parent="cOocZkf1hTMngWwaIAUV-10">
          <mxGeometry x="45" y="120" width="110" height="40" as="geometry" />
        </mxCell>
        <mxCell id="cOocZkf1hTMngWwaIAUV-25" value="" style="image;sketch=0;aspect=fixed;html=1;points=[];align=center;fontSize=12;image=img/lib/mscae/Docker.svg;" vertex="1" parent="cOocZkf1hTMngWwaIAUV-10">
          <mxGeometry x="242.5" y="69" width="50" height="41" as="geometry" />
        </mxCell>
        <mxCell id="cOocZkf1hTMngWwaIAUV-26" value="Patient Medical Records Managment&amp;nbsp;" style="text;html=1;align=center;verticalAlign=middle;whiteSpace=wrap;rounded=0;" vertex="1" parent="cOocZkf1hTMngWwaIAUV-10">
          <mxGeometry x="198.75" y="120" width="147.5" height="40" as="geometry" />
        </mxCell>
        <mxCell id="cOocZkf1hTMngWwaIAUV-27" value="Scheduling Managment&amp;nbsp;" style="text;html=1;align=center;verticalAlign=middle;whiteSpace=wrap;rounded=0;" vertex="1" parent="cOocZkf1hTMngWwaIAUV-10">
          <mxGeometry x="386.25" y="120" width="147.5" height="40" as="geometry" />
        </mxCell>
        <mxCell id="cOocZkf1hTMngWwaIAUV-30" style="edgeStyle=orthogonalEdgeStyle;rounded=0;orthogonalLoop=1;jettySize=auto;html=1;exitX=0.5;exitY=1;exitDx=0;exitDy=0;entryX=-0.05;entryY=0.325;entryDx=0;entryDy=0;entryPerimeter=0;dashed=1;" edge="1" parent="cOocZkf1hTMngWwaIAUV-10" source="cOocZkf1hTMngWwaIAUV-23" target="cOocZkf1hTMngWwaIAUV-17">
          <mxGeometry relative="1" as="geometry" />
        </mxCell>
        <mxCell id="cOocZkf1hTMngWwaIAUV-34" value="gRPC" style="edgeLabel;html=1;align=center;verticalAlign=middle;resizable=0;points=[];labelBackgroundColor=#746188;" vertex="1" connectable="0" parent="cOocZkf1hTMngWwaIAUV-30">
          <mxGeometry x="-0.233" y="-2" relative="1" as="geometry">
            <mxPoint as="offset" />
          </mxGeometry>
        </mxCell>
        <mxCell id="cOocZkf1hTMngWwaIAUV-31" style="edgeStyle=orthogonalEdgeStyle;rounded=0;orthogonalLoop=1;jettySize=auto;html=1;exitX=0.5;exitY=1;exitDx=0;exitDy=0;entryX=0.497;entryY=0;entryDx=0;entryDy=0;entryPerimeter=0;dashed=1;" edge="1" parent="cOocZkf1hTMngWwaIAUV-10" source="cOocZkf1hTMngWwaIAUV-26" target="cOocZkf1hTMngWwaIAUV-17">
          <mxGeometry relative="1" as="geometry" />
        </mxCell>
        <mxCell id="cOocZkf1hTMngWwaIAUV-35" value="gRPC" style="edgeLabel;html=1;align=center;verticalAlign=middle;resizable=0;points=[];labelBackgroundColor=#746188;" vertex="1" connectable="0" parent="cOocZkf1hTMngWwaIAUV-31">
          <mxGeometry x="0.0017" y="-1" relative="1" as="geometry">
            <mxPoint as="offset" />
          </mxGeometry>
        </mxCell>
        <mxCell id="cOocZkf1hTMngWwaIAUV-32" style="edgeStyle=orthogonalEdgeStyle;rounded=0;orthogonalLoop=1;jettySize=auto;html=1;exitX=0.5;exitY=1;exitDx=0;exitDy=0;entryX=0.977;entryY=0.618;entryDx=0;entryDy=0;entryPerimeter=0;dashed=1;" edge="1" parent="cOocZkf1hTMngWwaIAUV-10" source="cOocZkf1hTMngWwaIAUV-27" target="cOocZkf1hTMngWwaIAUV-17">
          <mxGeometry relative="1" as="geometry">
            <Array as="points">
              <mxPoint x="460" y="235" />
            </Array>
          </mxGeometry>
        </mxCell>
        <mxCell id="cOocZkf1hTMngWwaIAUV-37" value="gRPC" style="edgeLabel;html=1;align=center;verticalAlign=middle;resizable=0;points=[];labelBackgroundColor=#746188;" vertex="1" connectable="0" parent="cOocZkf1hTMngWwaIAUV-32">
          <mxGeometry x="0.2043" y="-2" relative="1" as="geometry">
            <mxPoint as="offset" />
          </mxGeometry>
        </mxCell>
        <mxCell id="cOocZkf1hTMngWwaIAUV-38" value="Database Managment System&amp;nbsp;" style="text;html=1;align=center;verticalAlign=middle;whiteSpace=wrap;rounded=0;" vertex="1" parent="cOocZkf1hTMngWwaIAUV-10">
          <mxGeometry x="198.75" y="251" width="147.5" height="40" as="geometry" />
        </mxCell>
        <mxCell id="cOocZkf1hTMngWwaIAUV-39" style="edgeStyle=orthogonalEdgeStyle;rounded=0;orthogonalLoop=1;jettySize=auto;html=1;exitX=0.5;exitY=1;exitDx=0;exitDy=0;entryX=0.35;entryY=0;entryDx=0;entryDy=0;entryPerimeter=0;" edge="1" parent="cOocZkf1hTMngWwaIAUV-10" source="cOocZkf1hTMngWwaIAUV-38" target="cOocZkf1hTMngWwaIAUV-19">
          <mxGeometry relative="1" as="geometry" />
        </mxCell>
        <mxCell id="cOocZkf1hTMngWwaIAUV-7" value="Public Subnet" style="text;html=1;align=center;verticalAlign=middle;whiteSpace=wrap;rounded=0;" vertex="1" parent="cOocZkf1hTMngWwaIAUV-2">
          <mxGeometry x="10" y="20" width="60" height="30" as="geometry" />
        </mxCell>
        <mxCell id="cOocZkf1hTMngWwaIAUV-40" value="" style="shape=image;verticalLabelPosition=bottom;labelBackgroundColor=default;verticalAlign=top;aspect=fixed;imageAspect=0;image=data:image/webp,UklGRiZpAABXRUJQVlA4WAoAAAAYAAAA/wMA/wMAQUxQSKs2AAAB/yckSPD/eGtEpO7hDdu2106ybTtmSS+kQegldEITEJCqELGiiARBERQwipQAKqEJoYgRGwELEVEpekFERYJ6QajSMSBFOqFDgEAgJKTNOcfxQ6/7vp9r7Oc5zjHGsjxE9H8C6J7/7/n/nv/v+f+e/+/5/57/7/n/nv/v+f+e/+/5/57/7/n/nv/v+f+egIPqtE/oO+jVlFkfZWSu3Zzzj/tz/zm/4O8Xc3NzD+T8np25POODGWOH9O4SXy3A9uWq1TVx1IyFq3ecKmKd3jy65bt5Ewd3r+dvt6r6wMDJX2SfKmecvss7V7w7rFs1+5NffGLq94dLGHfxn9/P7B/vZ0vyi09MzTxSwWKsOLxiyhPVbUTOZoMX7C5j8eb9OvvZ2vaf6r1Ts26yyPOyUhOC7TquNuN+vsZS6MmZ1yfabuNq90bWLZZK7fCCflXsMq72b60tZCnV9r/XM8D2EjVweT5L7d3fxjW2scQlZ1ewDJ/J6O1vQwl9ZtElluhbK54Pt5UE915axNJdlp1cxSYS/sLqUpb0in+/EmX7CO69tJil3ps9ONTGEdBvTRkbwDtLHnHZM+LTrrNhvJLewnYRlbSfDWZOUpiNwr/vGg8b0KIv29kk6s3NZ8O6d2iw7cH5aJaPDe2teU1sDeFJR9gAb+/tsCs0SS9mg3wyOdiG4OyznY30jXdibQb+g4+w0S5f2thGEJp8gY24L+t+m0DsO7fYsP/WyQZQ//NSNvTrO1v8amd42PBv72Hhq7WwgpXgho4WvcpppawMs1tb8GLS7rJK9GU2sNhFvVvMqrF8QYyFzi/pOqvIotRAq1zCEVaVFwY7rHDttrLK3NnB8lYjw8tqU1saa2kLSSli9Xk7xd+6NuAKq9HDD1nUGmWzOl0ea0ELSi1llXor2Wk163GcVev25payWj+wgq2YHWAZc79RxGr2aEeLWPweVra+jFALmDuljFVubg/LV/xeVry+eUGWLndKGavfo+0sXPF7WQl70vwsWq7JZayKdzW0ZNXaygq5JNmC1fcmq+XvIyxWQemsnM91slS1PcEKuuIth2XKkVzOanptlEWqyq+srC90sER1y2OFXZZsfXK85WG1vSzE4hSWycr7YJylqfERVuA3H7Yw9bnNStybYlVyp2msyv8VbEmK3coKfW81C1Lzs6zUL7e1HD1ymxV78dMWoyQPK3ct1Urkl8FKfqHLMhS5gRX9ujCLUP2jrOz3VrEEdbvJCv9UAwvQM6Ws9K/db/l5xctS7blyaFf2qqUL095OGZn0fzh+2tyMf63dkpN7zStPfKeHxWeKxjJccWbTVzNGJXZrVpn+a13V2/UeMWPxLwevyQ+X9bHyOOez5Jbu/y51SPc6btJzWLvnZ678s0Rm2POSdcf/O5bXkpylE5+q7yKYjjq9Ri360yMprI2z6oSuYzmtyFk4rJWbIAd2HPXNX14JYZ5mzYnZyxJ6Yenr7QMIfEiXsT/elA5+x4pT5RDL5pXMpHgSZlxSZoFc8AcOy021YyyVeV+9UINE6+4wcV2xRHC6w2JT4wTLo3fHlDYOEnTgExlXpIE/d1hqap9mWby5bEAUid3ZYc4RSeBPHRaaumdYDvMXPeJHUtjgjd99MsDzrDN1z7AM3lja248ksnryPgngj60yDS+y+O989aCLpLPVh1eEx3OsMQ0vs+h92S+GkJy6ei0tFhxPt8LUPs+CPz65Fsls6Mt/iI2TrS+xJ1jo5Su6kfx2WFomMm2I1aXSPhb5lbSaJMcRyWfFxd5Ea0vwNhb49kQ3ybMzIUsTFZc/amUJ3MDCLlvUhGS72VKPoLionXXF9T2L+k56TZLxOuklYuLrDa0qzm9Z0FdTI0jWq6TeEhKfjrWofMpiPvmSP8l85LQbIuLdwZaUCSzk3JfcJPshKQUC4jUuC8oATURnh/mREYx8r0Q8/Kn1pGspi/dCcgAZxRoZHuHwGKtJk5ss3Jvj/MlINv1RON4nrCWxZ1i05R9FkdHsuFUwfKellSRoF4s2qwEZ0d7nxMKXalhHXGtYsLs6kUENfa9CKLwrwDKygMV6dbCDjGvTDULhr6wiQ1iovqXRZGx7nxMJj7aGdCoXyu42ZHhD36sQSMWDVpBql1igBckuMsLN/xAH34izfgTuYYF+G0MG2W9auTB4f6Dl40sW59W+ZKCb/yEMXmT1SGZxZkaToXanlImCX7Z29PAI48rTZLib/yGK0jZWjrr5LMrFlciA+83yioFPVrJuBOSwIG/2JYP+0GUx8A/WjQUsyE01ybDHrBUDv27V6K2JwZPqJAPvSC4XQllra0btmyzE423I4Lc7LQI+GWbF8N/LQlwSQoY/4nsR8GIrxjwWYdmrpASTPQLggdaLJzURXOhIirDbNQHcrmO1qH2DBbixCinDuMP4+HeXtcJvN+P3TXOSQgz9ER+/Ya2YxfgLHye16EjV4JU1t1K0rcCXG0/K8Ynb6PivQOtE8AmGvzWGFGTLS+j4XevEJwx/sT8pyeoH0Hnut0okaOi0VFKVkVvB8dFAa0TERQZ/9ylSl4E/guNZ1ojlDL6gC6lM1yfgPG2tEP0Y/PmmpDgna9D4gJ/1oWo+uMM1SXm+5IHGk6wPmYx9VzQp0H4V0ErqWx16M/bVQaRE+1Yg43UWh5Az2Fb6kSJ9vBQZP29tSGfo37lJmT5Wiiw/xsrQ3gttkZMU6mOlwHiRhcG9n5EvdJJS7V4EzNfBupDCyD9ykGLtWYqL9zitCvXvIvuA1OtTHlw8zKqwnoEvdigYGuTDdSPamvAcA1/iJCU7FhcvsCQEnwe2yk2KdhYub3MrQirjXh9AyvZjWLzRglCzGNf2EFK3jm9g8aPWgxUMe38YqVy/32D95bYadNZgna1KajfsICp+zWLg3MeobzYl1Vv3Gqpr4daCJEZd2oXUb7sSUDzTUhCeh8rXj1Rwfw1UcVUrwQeMeiyp4VmgeL6FoHYpqgWkiB2ZoMrrWge+YtC/+6siCtqNiZdYBpp4QZ2JJnVc4xomb7xV4AfGXNSCVPJDXkicaRFop2HSEkktv41Ja2kN2MCY3ybF7PwVEq+0BPRkzD85VBPFXIDka24F2IXpXBSp5/bliHilBaAvQy5rSyo6GZKvuennPIJpBKnp7xHxctOvH0NeSYq60nlE3vpm3x+QToarKuqpAeJPTL7HGHFJS1LX8xGVxJp72yCNJIUd+BcgfsfU68aI1zlUFt3vAXQ73Mxbh+hWLVLbqYB4vIl3n4boOVLc7t2AzrnNux8Z8DJS3k1K8PCzpl1TH6CLkeqLJgHaZtotZbzaQ6TA/Q7j4XYmXbVyQBmkxDv78Cw36WYw3iuRaowy8FRUN+UC8gA9Q4q80hU4PMWUG8J4V5EyfwHPBZcZ9wee2zXUGa2Hw71NuC6Mdzgp9AYlcH414TLxbHWoNJoBx1ffdKvlgeNtSUo99Aoaftd0S2O4C0ixD4OT5zbZgm7AyY9Sba6DaPgJk20Qw32VlHsPOKtMts1w9rvUG/2KpryyqVZPQ6N1IwXf1AOGx5lqsxntd6TkF6I5aKa5LqIpr6fmYu+A4RYm2uOMdh4p+nfRvGuirUJTFKvqou+AOe80zaLL0LxNyv49MNzVNBvPYK+FqbuYIjALTbO/0IwkhT8XzE1/E8y/Wb+p3zPY034qr0oxFn7c1PKPT0zNzCllwC+T0v8QzGKzKuaxaVnnNEZ91k/txd7FcsNtPoV0Hb8il7G/Ror/Yyz8sKnkiH9t8SEvw78UoPrqebEsNI/iBmdcZDGOIeX/A5Z8tylUe8iSiyzMq0HqrxsW7mb6RAxYdJqF+haZgPuwvG/u1B2zoYIFeyvUDBiM5ZiJE5+yXWPxziUz0P8KFG5ozgQmpF9kIXtqmwI0Dcs4E8b9+PIiFnUmmYNVSqFsMlscDyy4xgJ/wCSgr6FURJgqdVNOstD3klnYGQr3NU+ik7ZrLPjnTAM6BuVzk8T15FovC/+Cn3mQAuWMKRKbcoZlcBqZh1U9SLiB+dF2aQVLoa+2iUC/QHnd5KiUdJhl8RcyE/tB+cnUaPV1CcvjM6aCfz6SQpd50SVLY4m86mcq0Dwk3M6kcPXPYbl8l8zFVlDeMCUCBh9nydQamgx0FMkaEyJ62nWWzs1kNs5EcstlNlSdV8wS+orp0AoJ32cuRKcVs4xWRJsOdArJWDMhNOUWy+laMh/TkHxvHgQnX2VZfdGEuB/JZbPAP+kKS2tpJRPCcQ4I1zIF3K9cYIn9iczIj5AkmgE9DrLU9jclOiP5UP01/JnltjjElHBeBbJD9VV6v5wldwWZk8uBlPorPefgqyy9T5sUQ4DwfSrvwT9ZfgsDTYqqGpCh6q7WDyzDS8isPAzkE1XnSCpkKX7UtPgQyA5F12IXy/FNf9PiUSB3XSouMLWcJXkhmZbBZTi4qYJ76CRLcw/zgjYAeV65RWRoLM15LhMjBchs1TbgGkv0AjIxOwBZrdYqLWOp7mRm+JfiOKXUel5kqb7gMDNoJw5fkDoLTPOxXM8lU/MjHHyfMmt+gGW7rbnxHJBBisw1sZxl+zSZm3WAzFFjdbawfM8yOegyjkwlNqCQJbyF2fEjjj8VmDuNZfwYmZ0pOIocyqv2HpbyaaZHNxxcTXX1uMpy3sT0CNdwdFVbjhQfy/k+Mj8v4hiqtKpks6ynmCC/4Zilsu4/x7Ku1TVBPsSxRGGNrGBp30Um6Ms4NisrVzpLfLIZ0gFHrqoKW8sS76thhoRqMMqdaqr+UZb5zWSKnofB1ZVUl+ss9a+ZI7/i6Kiihlew1HuqmCPv4+irnlxpLPn/JnM0CcfryinsV5b9oSbJozhmqKaoXSz75VEmSTMcCxVTneMs/T+TSRqKY7Vaan6Jpb5g5+IJvWPNEroJY7dS6lTAkq6dWzfvtQdjyVz9E8ZZlZRQxPJdkZuVltQljMzYn2EUK6QXKliqb+VkpibGu8i8XQCD/ZXRKB/LcsH2jOSEOAeZvRNwVFFFM1mCyw5lzhrYJoRM4oE4Giuid1huC3Z++VbvBi4ylbvh6KiGZrGsVuRmpyclxJEZ3RzHY0poDsvouR+mPB7nIvO6Bo7nVdAsls0rWam9q5DZHYzjNQU0i6UyN2NwLTLHy2CMVz+zWRq9RzISY8g8vwrjbeWTxpJ4Y/mASDLXj8JIUz1zWAoPvtvZRab7DhgLFM+bLH7fphF1yJRfC+MrtTNIE96RlOpk1i+DsULpPOVhsR+YWJdM/AUwSvd+M+HJOKea6VrCIr/2XlMy9z+G8c8l+5ZP7lNTtbQoYHH7sgcHkdmP5p+vZKX2jlYncXks7Ctz4sgCiOnvvmNLRrZ1qZCqp1nUW/r6kSUQ1z8W/DQ6XnWE72cx+7I6klUQ3N+vZSbFKwy/bBZy4Ye1yToogL+f/fyRAEXxOYv4wpvhZCUUBDPfyXwhUkGMZQFfSA4ga6E4mNm7PaWxYnjcK55LIwPIaiiUv//5Zk2F0Ow2i/Z6ShBZD4XD7NueHKMIqpxlwV4fF0RWRAExc+n3fQIUQOAOFmtpWiWyJoqJmQsWtjF6jmUs1qw4sioKi5lzkkIM3VQW6q4HyLooMuaCj5sYt0d9Ijk3wEEWJWZtU39/Y1b7BouzIi2YLI2iY+YrkyIMmN8OFmdOW7I4SgBzUXotw/UZC/NWspMsUMwVS5sbqwEszKyaZH2UBGbe3ttANSsSxcVHyQopD8zbexil0CMsyMwoslgxb+9ujJaxGG8NIoukXDBntzNAo1mMWVXJmsXaqnij07JMCHeGk3VSOph9y+samsBDLMJ99cnKxVz6TqiB+ZhFuDSILF7MV5JcRiVBE8CdgWStlBTmfV2NScQFxn80nqxhzFn1jMhKxr8oiCxjXDI9wHAMZvjlw8h6KTPMR7sajHqF8PIfJIsZa0ujjYRzC6M/WJcsZ8x5gw3Em4z+hxCyojFn1TYKcXfBaTMdZFHjolEOQ+BYz9jLniOrpgwxr69hBIYw9qJeZGnj24PkL+Y6trz7yOLGnBkle98y9NwGZH3jvMfk7jGGvrcyWeHY91GgxAXnQtsQTtY45j8byNvHjHxtAFnm+E6irN3vRbbKjyx0rH3kJ2XOPQw8048sdcx768rYMAa+0k1WO85/VL7C84AtdZH1jn2pTtmay7i/dpEVj/mnULmqX4brRxdZ9PhQXanKYtjZAWTZ4/xuEpXAsHeHkoWPy4ZIk/swrENRZOljTndKUjKjPl2NrH78U4gUxRSguhxH1j/eEyNDHzPootZkB+BjteWnegko39NkD+ArraQng0Enk12AC7pITr1yUIvIPsBlfeVmOWP+t9tOwN7hMtPch+lQONkKWEuWmB8Zcn4dshkwj5eWdhok36NkP+DJsrKeIU8hOwJPkZMuDDnLaU/gqVKyCdLpCLKeNhw8Y/mufOnjSRLSgRGXtCLLaqU2iRMXbTrvkzeeKh8/QBpClteAJk+Mmf/L8TIZ4/Gy0diHaAlZZyPbJqZm5tyWK22YZCxmwGfCLTT/MbJtYkpGdq4mR+ztJxU1ygF5OpFlNyAuISktK9cjO1zeSyY+YMCpZPn1i0tISsvMKZIXvtNOHirdBrTXz/rznyPbJqZkbL8lI5zfVBqmMN7COLIcR7cfOPXrbdfkgs/XkoSgq4AGk2U5ov2g2Sv/8soCHw6Xg9cY7y9kdQ7pNPrrgx4Z4F9dUnAYz53alqd/DH5o+qYS4fF8GejGeEeSddq/y5SNFWLjURKwAs8up4Xq7yG9My6LzPuk8KqWwylrQtZrZ/tZJ4TFhc1FN5XhTiaLdnzqKUHx2Vixuc7DOeRn1SJyPDAvX0i83U9ofRhud7J0+ydmeQXE84S2Ds53ZPmumXJePPyiwOr70NytY/0icvbeKZzieHF9wGinkEW87VKvWPhEuKj8b6A5HWgVI2rwSYlQONMhqD6M9imykldJKxEJjxfUKjT/Jot59fRSgXi6CimyDIyvpdWMqPr8CmHw+QgRvcpgl5MVvWGmJgpeJaLtYCrqW9KIOmwXBb8onjgNzGdkVXcMPC+IwnrCmcZYS2pa1oiCU8uFwNtdojkOJo0s7Y02CoHfFkxHxno7ytpGjsHXReB5QCyfgJlOlvfKqwTAp0NE4rqO5U6U9Y1o4E18/KFIujPWD8gSH7san6+TQD7EUlbDGkc09A46PuQvjlwsX5BlvuF+dDxNGK0YqrehdY4C0jVw5fGimI5lBVnq+xRg490uQezH0tpaR/VysPEYMdTRoGwmq33Qt9iKaglhLEN91nJHlORBxiuEsBnKZT8LHj1SgIwfFEC0B8o0suQ3OoHsoAvfIEZaUc2aRzG7gPFIfEug/Ius+gGZwApi4F2E0sWyR65PcfFn6Jow0kNk5Z+iwfK2BjcSynhLH43SUPFWcD8h8VS19tFwHyruDc1VgGQtWf0HeFAddiLrwEifs/xRYgUoHoRsMpLbQdY/etYDKtcf2CYkX5AdcJAPE4/EFViKpIstgF7XMF0Lg/UwAz3jsAfQBEw8GdZ0JB+QXXA2pltRqH5F0tk2QIsh8WxQjhtArjrtA37rIN2uhKkRA/2cbIRhBxBxCqYXkfSyE1D1C4iuBkFaAOSWv62AWhcB4tch5QBZRjbDPhqg836AAsuB9LMbUBogfhFQJ8bpjbQdOH8FdNSJZxyQXWQ/jDqDh/vgWQFklg2BWpXg2YLnNJDudgR6DQ+3QBPsw1EcYEugFXgWomnHOH8he2LEOTh3o8AMATLOpkBdvGh4HJi5QFrYFWg6nFNOLL/iuOmwLbj3ouHHsJzH8QvZF5uWolkLJVzDMd3GQFPR+Ooj6cg4e9kZ3H+A4ZlIhuPQIu0M1LIczDknkI9xHCV742ww/CCQ9TgW2xyCzoD5CshZHEk2B+oDpigUhsuD4z67A63FwoNg1GaYnkDbQ/1SLOthdMVxjOyPM7D4aqJ4Ecf3NoiQK1B4IoqpOKbbIOhVLPtQLMLR1w7hOgKF40Bk42hkh6A+WMaDOAmjxGWLoG1QtmNwlMLYR/bILlB81SBUY5grbBK0CQmPgNARx3t2iYegZEN4BscIuwT9jsQTg2AYjsdsE72Q8EsIJuJoapugHUgyEcyFoQXbJ55BUuAC8DWMq2SfdOUC4Q4A1sDYbaOg8UjeBrADRqadotIdIL8DOAnjEzsFzQfiCdffTRiptooGPhz8lO5cPhijbBW0DsgC3VVmmM/ZKwYAOaG7JjgS7BUBN3FwLb21w9HKXkELgAzQWxccNWwWLYGk6y0BR4DNgvbj+ENvT8AoIbvlOBwVwTrrB6PAdlFTg8HddTYIxmXbBe3AMUlnw2Dk2i/G4lijs5Ewjtgvavhg3HDoazyMffYL2g6DG+lrMowdNozxOAbqayaMDTaMpjjm6GsujLXqrnKLBxISEjrUCjRf6CyMLH29CyNbxTnbJS85WMz/Q19BQcHN3NzcU39kf7/o/amjXuzdtVGQqfEZjPP6mgLjgHILePq7fP6vLPjrt69mvPpk61AzojcMLUJXyTAuK7b6Hxfwf/3FjZ+Pfay+y1QIKUPBXXU1FEa5Q6U1X+Vj3Zb99f2kRyqbBbQBxuu66g+DI9RZ9eU+1v2F1dOerG4GvA1joa4ex9FQlTmTCxll3o9j27gU34MwduiqK45OiqzWJsZa+MvETn4KL7gcRaGumuN4Wo09fJMB3904ta1D0dFOFFxFT9VxDFdiYzyMOu+rxAgl9x6MjnoKwDFJhc1h6J6tKS3VW28Yz+uJimB8rsDmM/7zH3V0qLVYGFN1dQ7GOvU1m8V4Ib2LQ6HRFRSLdbUPxinlNYLFeSatjTr7BcUWXa2HUeFWXF0rBMLMJ6fUUGSzUVzQ1VIYXE9txV5l0Xp/edZfhT2LwhegpzQcPdTWDyzigozW6isOBTfSUzKOV5TWYBb17leCFZfjDopeeuqPY47KCs8TFvPt9DpKi/ajeFFPXXGsVFkfs9A9Kx9QWStQvKGnBjj2K6za5WJj5r3P+ymr2Sje01OwBqPUra4+ZQm8PDFcUQ1B8Y2e6CoMbq6sKpfJAHNBaqSS6oTiV13twfGCskphWSxKr6qgKqPI0dUKHHNVleO0NDAXf1BVOdFdEBd09R6OdaqqHUtlSXo11XQaRJmuXsdxTVWlyQXz3bRKamkbCK6kp8dwcFVFdVA2mK+P9ldJK1HU11MjII+oqWiffDCfT3Kqo3koWurJXYFjgprqw3L6Rw9llILiAT3RcRw/qKlUSWFeW18RDUaRoKs1OK47lNQqaeGK9FAl9DSKp3T1AQ5urKQOyAvz2T4q6EEUA3X1KpBhSuqGzDBvbKp+2qIYpqvuQL5WUf6a3HDZ7GDV0xDFGF1FAzmtoiJZes/0VDyxKCbpii7j4OoKqrr8sLY0SukEo5ilr38D6a+gakgQ84XHVI5DA/G+vt4Hkq6goqWIOTNa3YQzyBn6GgzksIIKkiS+8rSyqYVior7uA8K11BMVShLzsnBF0xzFGH0FlAN5VUEdkyY+84Ca6YximL4oB8hqBfWrPLFnqkvFPIFioM4ygBQHqKe5EsW8K07BPI/iKZ29AoQfVk+DpIoLnlUvI1Ak6KwNko/UUz25Yl4UrFpSUXTSmV8pkGPqic5JFh9roli+RNFKZ7QHCMeppy9kiwueUCu/oWiot3lIxqqnR6WLfalOlXIYRXW99UeySz3535Qu5rURCuUWCM1fb9WRaHWVE30sYXy+nTIJYZA3SPfngHCKemqiSRjfHahKGqM4qr/vkOxXT7RWxlhLdaiRXig2628UEm6sntpLGfOyACWSjGKl/lpCmaaeaI2c8e/RKuRzFPP158hHckxB1S+TMz7dRIFsQTFZf7QKCbdUTzRH0vhGV/VxFcVwACOhzFVQgX9JGpe9oDqiGGVvAM2gXPNXT9SmXNJYG6c4OsNoD8BxFQn3V1A0QtaYZ6iN4TDqAKDvoGSrKPpS2ni+Q2UsRFHuQvASFK2hivJbK238rZ/C2I/iOCGsqiHhd1UUBW+TNl4dqCwCK1D8AoH+hHLVT0VRyDpp483hqqITo5yH4V0o/KySooBMaeNdlRTFGBhjMHTHsk5NkeNtn6zxzjA1sQzG4xj8CqFozdQU0aN5ssbbQpXECRiNMNBKKLxYVVHl72WNt4QoiOqM0usP4gUsZdVUFdGjJyWNNwaph0EwzhDIiAoo/K66Ir/BuXLG2UHK4RsY61HQRiwFYeqKKGDwH1LGvwWohgswPoUxBguPVVlEdN/7FySMf3KphUYMMwlGXTDn3GqLiOLHrTorW5yhFkbguB8G5WDh55XX3yPue+bVlHfmpIx/8dGnhk2Z9+2GQ9flhlOVwioYniAcE8AccKiw/9Pw1s++tXD9GU1S+DWFEHAHxl+Es56Ghfspuv8Y1nZw+vZiCfH1UwdPMMylQGgvmCMupfePzsYvLT4uGVzaTRlk4HgDyZtgeJD6+8cqz3y01ysRfKuFInDm4eiBpK4G5pTbHPh79MBl16WBL1ZTA50YZxQS2gGGh5sHRORsP32PJge8J0gJzMVxjqCOQHM+wEz4e+0390oBf+tQAadwrMYSVQ6GR5kNRBQ38U8J4MkKoCPjnIKFfkJzJdh8IKKmH1wXnq+P8fsUSFcwz6LhGaYEkX/vTK/YuKil0fO/gaMsEExAAZqSOuYEEdWdmSc0PlfF4PVlnFsJ7WdoeKVpQRTw8iGR8TY/Y7cayCw4beFwd/OCiLpkaeLi9w1ddDmQh+HQfjj7XWYGUYslHmFpTxu5sYzTE4pnJBxOMjeI6mZ4BMW34oyb4wSQ3YS30l041yNMDqJ6GV4x8YEgw/YYA50LiJbC4Y9MD6JmKzUh8aeGbS2S3og64/G0NT+IOuwUEj9n0OJ8QLyRiGgfHD7oZ4IQ9T4joqKmxuxDBrqDIL+ChyeZIhQ0uUg8vN/fiAUXIJmCKbgAT2kjU4So2nfi4TlGbAwjbY2JPsTDWxzmCNFDJ4Tj6268/M4juewAVd+Hh5PMEgpKLRcMnwkzXEmMdCGhXgvodnWzhKj1XsHwIqPlPg3laVgPAeI15gm5JleIhXsbrEGMtCwEFu0FxK+aJ0QtDorleqyhchyG8hvhHoToblMThYLmayLh1YbqOYY6GpjfBUB8ONBEIUq4KBIeaKD8TmGpD4wmIOL3TRWK/k0k+THGaTRD3U/Iw28h8iWYKuRI8YqDFxmm0KtY3oJG7yDiyzGmCtFDV8Wh9TBKMxiqVhdb5buI+CeThWrtEgYfDzBGsUVYthP4eZB4nMlC/l8Ig2cYo88Z60h0NcshebqbLETJXlGUNzNCbbxYPLHo6EtIfLWG2UJPFQmCf3cYH+cexrqO4NergMS7/M0Wan1BEDzE+CQx2Jfw0ReY+DPThar9IYjLoUYn5gaY0koCqF2GiYeaLhSyTgw82+gsYrA/kAg/BVXaxnShgFViKK1rbDr50DwthBqlmPh8NdOFXF8KgTMNTdAxBnvJLQSaB4pzQkwXcswVgtbVyHzAaGeSGCsXguI1LtOFaJIIeJ/TuHTyovHWFgS9jYozTBh6UwQ81LAEHmG0WSTKkDxUPM6EoekiuBJiVD5iuL2FQSNg+Z4xYWiWADjFoHT3wbnoEof7GCouecCEodkCuBFuSKLOM9zpJNC+sPh6UxOGPsLH042I4xeG660pEtoMiy/FmTCOb/HdjjIgbzLeNSTUVl5YfL6O+UJ+/4bHc4zH/eWAeoiFFuHik1XNFwrbB6841mhEnGG8f5BgYwtx8cEo84Vic9HxxwbDuZYBPycaSgHGe8LMF2qQj660prF4lwHnuoTjfxwYbwk2X+jBCnCcbigGaohGkXgTkPG2cPOFRqC7G2MgWt9lwDdCBESZyDgnxnyhz8HxNOMQe4ERTycR1yxCxgdjzRe/reCuBxmFwO2M+G6MkCgFGh+vabpQdC42ft0gOL9nyAtIzH6HofGZeqYLtSvDdtplDD5lyJ44QVF7LzTOizddKBkb9zcEUxnzFyTs+dj4ekfTxfETthwj8LKGqay2uMIuYOOSvorFr2p824cSHk5MTHw0IaFtyxqB4qHIc9C4p/w94WHM6STwx8GxlqpGgtoNenvxxhOF/L8vPvv70hlDu1QSCLUvh7Za+h4uZcwl1UVGK8Axz3cpjqBuEzOPe/n/+dk1Mx+rJAiaAM1TU/J6lDDoNBJ6zFV0/O8wdRGQ8MHuCv7v9R367JkwETi3IuOZcte5iEHfjhYbPQWPD9RQE1VfW1PM//0VmybUh0f1ipDl+clcpzuMejqJ/jt4fL6teoganOVh3R5JbQCORiPjfhL3QCGjvhEuvOg8eFz6slpwJmRWsM5zkoKhOTYh2yhvvYoZ9gQS/9P4mD/zVwdV3j7HCG98VB8Y1b0DTGsia/3LGfbZIAmgLwXAO6srggbpdxmlLysBF40Axh9L2qtext2PZDD0tAA4r6sKaLNGY6g7esFy7gVWECxlkxn4JpLDjh4BcMVow9csU2O4O3uCorZeXDxQwlzzGLi3pSRQqgiY/13V0NVc5mPI65tjok+ArZWv0NWM/FOSRfdOIfDVx4xbUModRu1bWgVS+BVcnljZqrGPkRfESAPVvikE1tIDDNpT5xl5wQgnIHoRF4+SrA55DH0USWQ/MTDva2LEYpcy+h3NADl+x7VbrgaUMvTDbpmgTwXBJcnGa0gB4y+b6oZD7TVY3Eii3Kk+xt6LpDLwT0EwZ9U0VpW+YzHuaQCHMnGlylP1bQz+O5LMBoWi4MJkp4HqcZFFeScJTlw5rNMOWeqex+BvVJENGiAM5i0NjZJzho8FuiQIDM2HxR3lyDnVy+hfJPmcJw4umeA2ROE/sVj/jANTuRDWx1JUfR3D/40k1G+bOJhzWhmgFqdZtDd7YaGpsM7IUP+bDL+ojoxQ9TyBcMVHlYxOwm0Wr/d1LOEFqLil9EQsZwGOITntVCEQ5hvJLkMztIKFnO5EQqmw3padHhdYgLtdkkKjhcKc09nAzGJR/8sPSWQhqhy5Cf9EYwGWx5O0fiYW1r6taVAcH7G4fwkCQnNQabVkpt9lFuJ0kld3tliYi6cEGxHHJyzyLWFAKheD4lHyUieLxbjXT2Io4rhgmK+M9DccziUs9m0hOOgDVNmy4n6zmMVY1ICktt510TCfT3IbC8fnLPqNgThqVICqiJSThIMsypdIch+sEA7zsf4OIzGXxb8uAAZlguKBMhL/Gwszk6T3ZQExH050GIZUlsF/OWF0RrVYPqLTPSzMi1HyQx+KiDmnv8sYDNSkgNNgUA6oc7IROrmQxentThLs/FlIzGeSgw1A9zKWxJEwBoPi+lIRkpzHIn2HpDjskJiYr0+Llr0mt1gWPY+gCLgK6lWJCJ2Qz0Ld4ydHVPOCoJiL59eTutAjLI8F9UHQbFCZ0lBpwnUW6+0GJMvNboqK2Zed6JY2x/cskweDQTTQMN1wykG9tFssWK0vyXOHYmEx85W0OpI2keVyCQjaholby0DbpR4W7gyS6ac8AmP2/PSoU8Lur5AMHgxiGKg3hRc0aDcL+FenVNEwTWTMfGZ6I9kKPcmyWdQQQ1gxpt8E1/bTWyzi3CiS7PGCY+Y/xteUqm9YPvf6QaClmO64BBY1+gCL+W5rku5U4TH7trwaLU3PsIxOxdADE7cQVfgLq8tY1INIwj8SHzNXrB1eTYoqXZKSsmYQnHmYhgsp/IXVpSzu+STjjkUywMxazoz7ndKziOV0lxMBfY5pkXjqvvpzKYv8dz8pI9cyOfj71a+eDZOahzRJ4REQEjAdEkvwY/OOs+BPRpOku76VBmYu3/bOo2Gy4j7MsloQg8B9A5I3TBihPaetL2Xh5zcgaXf9SyL+7vnjw6eiZWQ0y+unCOgrSPyQEOo8v2C/l2WwtDNJvHulXPxdO/zFiI7BchF5Q2K8LRE8gWkiuPBOr366tYBl0defpN6dKR3/6D2y/I2ekdKQzjK7HkFAIaTVqKp2HDApY/0ZjaUyhSTfvUxK/vn8xi8m9G0ZIrzaZVLDDwKg1ZDyIkHWiWvWtn1CQt+hKR98vWbniRKW0QySfucX8vIfL2/9auaofl0ah4nqC5bb7QhGQjLQv7nljxzpsvM/LDm38+fMLxakTZ2QNCTxP76YBH+SR3K4F4BGSmdfGBnCGbKkKHcAoDMK50QsGcQJmonDnQB8oW5OVyfDOKjCxPkBQH9lc6keGcheReaNr6H+on2K5lpjMpRtr5o2PE9/dETNFLQig1nvuGlzK0h/i5VMcRcynFE7zBp+Xn/DVUzJg2RAQ381azbrr7mCKU4gQ+r6wqTR6unOUaBcih4ig+qYpZkyPEF3tE613GhHxvWFUlNmn/5mKpa8FmRkO+aZMdxQd4lq5UIjMrY1csyYCbprqlTO1iejG/KDCbNZd+4yhXK0Ohlfx2Sf6VJRSW90QJ3sqUyG+NGbZgv30d23ymR1MBnk2jlmy+e6m6xKMtxkmEO+NVkO6+4pNeIbR4Z68F1TRYvSW3MlUjaADPZ9p8wUflxvYSrk+gNkuMNWmCmz9UYF6uN0IzLio0rNk190t195ZEeTMW92wDS5oLufVEeGHxn1wHTNsGmSxZF6m6c2ihLJyD+Vb9Sku6vexiqNk/Fk7GNXmyPD9DZAZfwSQYY/scAMmaW3XupCS3OSAqy7xQRZrre2yqLgSVKDzrF3DZdXunbora6q2FKLlGG9bKN1R7ou6i1cTXhSXaQQHUm3jVWBdJXqzVGhInI7kmKs9oOhKpQuDtEZXVUQmRGkHhMvG6gy+aqjt+PKofAFUpLh87yGScLb6O2gathZj1Rlq52mRRe95aiFkhQXqUvnazdMip5626EUNsSR2oxM95gSj+lts0K4neQg5dnkN+OjSVgfva1TB2trkhLtd8bolEpYot7WqIKr/UmVBoy/aWxuSlh/va1SA76vokmhRqaVGpmLEpaot9VKIKcTKdZ63/mMyxkJe1pvvyqAvCEOUq/xmZpRuSBhj+ptg+GrSA8nNdsh26BckbAeettm9LKbkbrtucOQ5EtYZ73tNnYnniC1m7DVgBRr8tVab38auQvD3aR8u2QZDr4lXzX0dtS45acEkRLulKUZjLPyFai3c0bt1pRQUsYN0ksNxUHpKiK9Fxuz4rRIUso13i80EDul66ze/NmIl6THknKuND7XMGyUri16q2bAbs6qQkramZClGYP10vW13pobrrzUSqSuW3xRbAQ2Sdd0vXUzWIde9CO1XWnkIfnLka4heutjqLY87iAF3mlJqeTla7LVXm+vGKe7i+8nVR75+h6p4/OS5QvV20yj9NfoCFLqTVLPSdx2yTpFel9qiMoyExyk3F2PLyuStXWS9YPuthqgE29Ek6IP6v9TmZRtl6y3dXfO6NzM6O4glR/x8i9l8nVRsh7Sm9tjaIq/fdKf1H9w76WFksXnpMoTqrc6bFy92YPDyCwMevrLK1K1Rar2kN67GZWKjUlRZDLGp2z3SdNWqfpQd68ZkhuZgyPIlIwdvPSKHF2Uql66m288Ds7p5CIzMz4564788CmJKgnS3SZjcWftiNpkgrrbjVudLzmbJWot6f66cShY88b9bjJPHfGvLTmmycthiRqpuypsDK+tGtPKSSZsxCNvr70qJ77r0uSrrrse8le845NhzcjUrf745MxTmmzw79K0mXQ/WupuZs8d2MRF5nBY+5fey8r1ScQhaRqhvyWSdmXr4kl96pD5HNTymTcXZp/xyIB2TZI8sfo7KVm+y1sXT+zXOpRMbr86XQa+lf7T7vMlAuNdkrSadB+jyZAv/8jmbz9OGfJYq2ouMttDG3R6etgbM+cv+Xlzzl+5Vwt8Arnqk6Mn9fck4y1N0vPrs5duyTmW+1fO+q9SXx2S2Ktb20a1I/3IYhgS+R/9iAJi4u7r+nhiYmLS34cmJib2eqBFvUgXQdwgRZdc+nsH0D6yiveXopmk/82AlljG3OclqKya/txFgN6yjNEbEvQl6b8jA37UOhZ2W3q0eADTENW0jtFc6ckigNsA3XJYyGLuyE57AGEVgH4nK/kcyfmJAD7FgD+zlEXckhqtFYIFiF63lNFUqfmOEJ5A1NVaFnRWYkrqIGjMgCuCrWXUX2KmE8KpiHLIar5VWi6GQPgT0SeWsxblsvIMIazHiAdZzmiWpKwiiG9Bqm89CzgiJYU1MOxGlO+wnlEXr4wMJ4i1NERZZEWfIyGrCeMURjzZkubeLR1XY0Ecg9TDkkb170iG9hhh7MSIPWHWNBooGTMJ5BeQdpBVfZ5UZLtABN2ClGpZc2+RiHMxBPIFhtzZskZVz0lDUWtCuQXSHT/rGjW7JQnepwllC4a8hqzsD5bLwUiC+TWm0ZY2GqLJwLsEs3IppibWNholAYsdON5myJfI6j5OeMucBNPvEqavLG80Q3Ar3YTzBcb8nPWNUoS23E04HYcwlYVb4GiET1yfOwloX8a8lizxL1WIajZB/QPUMGsc9bwtJM9rBPVJxuytYpGj+HMCKnqcsO4AtYUs89W2C+dkc8Lai0GPtc6RO00wayMIq2MnqnoWOqJBxQLxTnEQ2IEMOoes9fV2CON8N0Lrn4tqqsWO3KleMWRGEtxxjLqR1Y6o6wkBXBtAeCNuoNpOFvzA1HJ0mTEE+D1GnWTFI2q5HdqxBELcoBRVaYQ1j6j3WVi3UgII8lpGvZIs+8HT7kAq/zSGMD/LsJ+w7hFFpRbC8WU2INDBZ2Fd87PyEVX54A6U8q8bEuy5DPsjsvqHJZ+HUZhei3DHV+Bqbfkj8hu4WUNwYGQYAXftZNj7yR7Y8L08nRVm3E/YJzLuoTYBImeX9Ku6KckaHELgm5biKgi2DRCRO+HDozo4n/FMMMF372Xc75PdsE7SsjP/RVd/GBtPQpzGuLWGtoO/V098d+35/2fXNnw0pCGJsnUFsF/IvhjRccCkjF/3ny/+X5ReOrjh6+mDu8aSSEOOMvDHbAz/w8DI2nEN27Zt2zSuXmQICXkJAz/ttEOI/yVGPp5s0E2LkRVF2qACDzDyD8gGvZiRl9WwQY1h6Blkf+7pgeZtaH+qm8/Q/0W257DDjL2N7cn5M2NfS7bneQy+i+1pIoPfTHbnFzR0nexOPcsZ/M9kc25XxOB9rWxOLfMZ/VKyNzfJY/QV9e1Nja8w/E/I1tzoMsMvqWFranSF8c8hO3PLPMZ/LcLO1P4GC3Ao2Zh7FrEAc5w2pgEVLECtA9mXR/pYhF+RbdmVxkIsrGZbCv2ZxTiO7Mo19rEYj/rZlTrksRi1nmRTfrmUBfk12ZMD01mUeZH2pDp7WZh9yZb8ZAEL83uyIwd8oLEwC6rakeL3s0BfIvuxI+kuC3Sjw35UezOLtKgu2Y0dQ2+zUIeR3bh+Nov1R7IZ+6WUslgvRduMOv/FgvX1IFtx9W80Fm0a2YmDUu6wcPf524gciWdZvMWNyT7cbQ+LeDjZhjtmsZCXk124VSaL+WCwTajtGhZ0QRzZgR0JWRoLWutDNuCAwX+xuFPJ/lt9xnUW+G9Ou48zIbOCRX4+huy9dWdeYrEXtyE7b+TL630seF8fsu8GJ2aVs/jfILtuzKDVpSyDC8meG5+S7WE5XOe24dQZtOQaS+Nflche64xPWnqGZTK/Ptln3c1fmLu+kCWzpAPZYgObPTlu8b4yltCKJ8iOGhQZGen/t+C6HXsPnfb175c0llXfQLKXBncb+822S17++80jucUsvyPITlrnrY1lLNuTyT4aMGS7xvL9AdlGw6ZeZRn/0mEX8Xsjn6V8lYtsog8eYTn/0Z/soYFpPpbz7/3IHlr/IEv6v9xkD+1xgyV9mYvsoQMqWNK/c5M9dLiXJf1LJ9lDB/hY0j93kD304XKW9FkOsofWzWc518aTTTToIMt5WT+yi85jOS/qRXbR7j45u9KK7KLuwyzluQ3INvoGS/m2ymQbrXRLyr70J/voNJZwbwrZSINvStitXmQnHcbyfaop2Ur3yte/I8hW2pBlW3vfRfbSibJV2I/sptsla29dspsGl8tVhj/ZTh9mmS7sRzbUiTK1vwHZUZfJk5YeSLbUP6TpQk+yqebJUmYU2VTdXjnKf5Zsq5VYin+rTvbVqjJUOJzsrDUl6McaZGutLD2X+5HNNVRyvPPCyPZaIjUH2pMN9rTE3E1xkx12o7T4ltQge+wCWdndieyySXJyph/ZZ1vKSHFqINloHfnS4VlYhey1KyXDt6wh2W0HSIWW1Yrst2Gl8qCtbkm23GXSkH0/2XQ7y4Hvxw5k3/1DAkoWNiQ779PCu51eney9jhyx5Y4MJttvF01c2oZnXWQHXi6qGx80JJtwTJ6QcpKCyT7cWzyFGa3IXvyxWLzZg0PJbuzeJA7f9uTKZEeOOCCII6lxZFeueQ6ftndqM7Iz1zmJrTQ7uSbZnasewHX9q2dCyA4dugpSSfbkjk6ySztSysGU/57aPYDs1W2P4ijaOufhYLJh+yXfAeA5sjS5iz/Ztmt+XqGn0j+XjXkgkOze9T6+rYfbu7+a8GR9J9nEQ4du8P7XlJ3c+M2M4Qk1yXYeO2hJ7v+DwrP7sld89s7YvvdXJVt75ENDZ2as+OXnzGUfTR6RNCwx8cmEhPvbNqnipnv+v+f/e/6/5/97/r/n/3v+v+f/e/6/5/97/r/n/3v+v+f/e/6/5///v2EAVlA4IJIxAADwhgGdASoABAAEPm02l0kkP6IhIxFIW/ANiWdu/EV2aoN+1psxoHNX8h/Af9AP5B6g7dvIH6AfwCrRDP/FX9AP4B65/Un8AP0A/gGi3b0fFIv/uH97/c7/Af//06rD9U/rX7C/3D9rPQOwq9O/uP6A/rX7UfL7wv8o/33nZeI/nP/H/wn+b/Zv31/7j+4e4f+Mf5n/t/4n+zf//6AP4R/Kv+T/iP9T+yXxdeov+of+X1Af0f/Pf+H++f77///Ll/qP+Z/hvcN/Tf99+yv+V+QD+k/7z/6e0h6gf+P/+H//9wD+X/6X/qezB/v/2r/83yK/03/ffuV8B39K/xP/4/33/R+AD/5eoB/w///+//ykfwD9//ev6x/xP8AP0Y/9H6x5I/gB+pP2zG5pn0AHtWe3BxR6zMVsCDCigCD1gQYUUAQesCDCigCD1gQYUUAQesCDCigCD1gQYUUAQesCDCigCD1gQYUUAQesCDCigCD1gQYUUAQesCDCigCD1gQYUUAQesCDCigCD1gQYUUAQesCDCigCD1gQYUUAQesCDCigCD1gQYUUAQesCDCigCD1gQYTShtUgl4ZP7+qGH1vGjfrEPvikS0NgQYUUAQesCDCigCD1gQYUUAQesCDBIJygfJk7QqJ1tAuDkwWBT1LBPlBwAhExWwIMKKAIPWBBhRQBB6wIMKJ/AUQP+swa/PWBBhROk3oPB0Wl3ghExWwIMKKAIPWBBhRQBB6wIMDt+UFvzMxWwIMKKAH3dyRGK8M5YCDCigCD1gQYUUAQesCDCifwrB9/GpJFx/vFP4LnghxAEHw/O2T9fTt56wIMKKAIPWBBhRQBB6wIK4XIi0GGEsCCxlq047V1QmZdvDQzoeA0BlDLQ6hxAEWTIZ2K5A4rskXIMKKAIPWBBhRQBB6ovxJKPdiqEFqfi5MO3x6zDMrkP/4moxAp+NqBQlARklVFAEHrAgwooAg9YEGFE6EnKC7JRBYO1h/k/FhIuQYUT+cCgck5q+3ExEGnUdncgEImK2BBhRQBB6wIMKKAC0S9SrVfCtKRS5wooAg9YCnOoFtSBSBY31cvHfiwfHrMxWwIMKKAIPWBBXVpSj/mid1pkrMxWwIMKJ/FIjFeu4+PD9QlIYEImK2BBhRQBB6wIMKJyxug3SDWho7U7rrskXIMKKAIPKCOtKCRmFhhOIUCmSN6I9ZmK2BBhRQBB6wIK7H5aELldQdubsDCigCD1gQYTdE6ziqrXLf8w9ki5BhRQBB6wILEVvBSfBYZmXMAo8uDUAQesCDCicwdlBHa2ZZF1NNBhRQBB6wIMKHrrd2DzpbJnflwSg4a3YrYEGFFAEHrAf8U+Cqd27yDeib89YEGFFAEHq+N/64aVXGlD7V6S5JEDCigCD1gQYUUAFkK7pGugM69rlunBhRQBB6wIMD6LWAegYUGFE/gfjZjt9YEGFFAEHrAgwmnofu3pM6c9pB6wIMKKAINJLwKuU7VKxYl4SPzLpZUojy4NQBB6wIMKKAH1evC0tct/zD2SLkGFFAD57XWJGJwssT/EkDL3peyRogI1AEHrAgwooAg9YCrcPa//ZjugytAU3vVp356wIMKHfz7cqpExhkmvcFpYEGFFAEHrAgwooAg9YCrf+Ic3xgscReHCCECIMDCifyr7rJYD+AHXaBtxWwIMKKAIPWBBhRQBB5bbiYrYD+FXmgVyBxXZIuKSK/BwgAoLaTc3JFAEHrAgwooAg9YEGFE50QYGFFAHGr1Vd54z2SLTFbvxXw6LdlL5hbg1AEHrAgwooAg9YEGCLFsLP2KvreQu3iWzQYIsW7FcgcV2RetbGCbeLGOQxB6wIMKKAIPWBBhRQBB6wIdX7VxYu2FAiDArhGhs8FYCpPrEw/KhBhRQBB6wIMKKAIPWBBhRQBB6pDE9wpjWL6owqvOKBrmMuMcE/Hi09gtq1JAwooAg9YEGFFAEHrAgwooAg9YD/BFurvPHA6bIkOjnnetFpmiwS3Er9v9b6wIMKKAIPWBBhRQBB6wIMKKAIPV8MTNKlZ9sBzl0WpaeFj9wYooAg9YEGFFAEHrAgwooAg9YEGFE/ikRhrxdepdkwPyKNfdfDUwwMKKAIPWBBgkE5SHoyFmYrYEGFFAEHrAf8U+bGJOus3FJJbyOPSBhRQBB6wIMJqDjSgex7EZ22FPid03k20Y2X2mmgwooAg9YEGB6a5bqQTXW4Ld9yykpYiolOAZGaC9nDCigCD1gQYTUHDQwzNmakKa98qReKuiLNNBhRQBB6wH90d4jRKPglGRmgrBKPwz+f89YEGFFAEHlt/4hzfFyDber4/U43WOpS4MKKAIPWA/uuzgoJVNfBWGHOoC1xHrMxWwIMKJyN/6LJEGBpywqavNuNGnB0DCigCD1gKtuX+CziJ1pT3fxkrsRIChJ/z1gQYUUAQeVzqBbUUL8PHyn85wR+4s7U/tV5qZ3Ow5BhRQBB6pStyR8WcRiqNl0ne3pgQbWfAgwooAg9YEFj/gYPrG5pxqkZslrwM5rQ/rcTFbAgwm0VpKfbmgrHzXHyi3wjPNuNGnB0DCigCD1gQYUUAF1hW9dS1shqMBTvvOT2g7zIOSJpoMKKAHznD+KGe6X9C2kLjHATuy6oVNE9JPUw9ki5BhRQBB6wILHqbB/ijW32B36FApkjeiPWZitR7XH9NzEN10V4rU9oQJTfjA+PQTo04OgYUUAQer439Ji+s93aOsnk/NAxWhJzr8XXxdGkNUUAQeU0phEwqgnBUxyCvfD8omVEhVIQiLgQOgUU/56wIMEgngnwlO4UkQd01MHPdYcNY7K7x55JLtzKlYeyRcUDdHFewchCPdkJPWA/pUDNNqu/8Q4/DmrgjAusYx/49RMVqaJyoZOMOjDD4WozVWFeYtNXxjPhCuwTLSnVhY9Mcs5dJ60jIEgnK91oJZT6eh1qjb5GBhRObhKLfEOAVKdLGH1vIbZml10DBI1PTifbSi7+yYH30sDSUVdgp6oYfW8htd78CtwALB7PQyq7JFyCvfESoDzhr77aUZZ99tKFOzhHFAzjv1ymXhcVEjX32rBuUC6qUDON26n1bjKhgYUUAQaVnIta5xsVtt4hdf65QM479clNysQG40BTAOTbiEp2HVs7U77aUZYQec2B/iw+esCDCigA5mKlFpeUfLkJgiNEpsoOEQOMgV3fkUXkH0FZJVNeqGiabnCg+XITBEaJTYmhetgH7gSLkGFFAEHqn0MvTWDVYZGOEvTVgWkv9WghW5kjQM5+JPMF/8rUq9JSZflqNfQrt921xctjJRln31J0ve/b15Uf3AcCRcgwooAg9YEGCai9+T++ajBQ5hZml10Rqdp9H+s2E3DCYuBJhOMJ7XPstWtWHL7KF3Do9/VDD63lCpY8uDUAQesCDCigCD1gpSKhb5RdrOwjz0GVBKC7PbjQUzmocTrCN/iWIKbkcYUUAQesCDCigCD1gQYUUAQesB/rgeiKYpx22j/jfsYg8KYVwcR5IQpdkefyGyK7aUaZhLPMIiMY3dCYrYEGFFAEHrAgwooAg9YEGFFABz2wz5Yr3JGL2dk24q66G975Jyg0I1yUG1HlwagCD1gQYUUAQesCDCigCD1gQYUUAQeVimBbeCvGIEDsgooAg9YEGFFAEHrAgwooAg9YEGFFAEHl7rsCCflImD2S6P2wUCYCDCigCD1gQYUUAQesCDCigCD1gQYUTma7XvlpoI5FCVZd3B6MhzvP3GkHrAgwooAg9YEGFFAEHrAgwooAg9Xxv6TD6xqD7N+epO9x41JIuQYUUAQesCDCigCD1gQYUUAQer5it35+O/Hzhm5ltBuPYnTG3BqAIPWBBhRQBB6wIMKKAIPWBBhQ8p2HVs7U0B+IyyUP9CDCigCD1gQYUUAQesCDCigCD1gQYUTkbxYFDb6a0dFMtPFbuxGOaYfQ1AEHrAgwooAg9YEGFFAEHrAgwooAg9XwC9qpwXbjO50BeqBIKtvTAOI2mM5DkrkGFFAEHrAgwooAg9YEGFFAEHrAgwooAOZ0y5zIwSGqDAwooAg9YEGFFAEHrAgwooAg9YEGFFAEHrAgwooAg9YEGFFAEHrAgwooAg9YEGFFAEHrAgwooAg9YEGFFAEHrAgwooAg9YEGFFAEHrAgwooAg9YEGFFAEHrAgwooAg9YEGFFABQAAP52vAAAAAAAAAAAAAAAAAAAAAAScc3jIPAphTWPm8v+fJEtGHGc7v4i9dz04lkYcHi2xmrfi7IW6KuIvXlUmTcPhFmH9hnq2ZfQX2+8d9L73FNOTyoXwpf1XdLNwilB0cqWXVkUYouMOsl+0BPClAutB7ofi6mZ9LwUnhy0EhI8A6ZONi53alwpSBjAVD6AfHr2Gnf47ba7B8KQtdqFWfPV3vqyr6iFEKmHmFQApWqO9hpqQ+YUw9Kvi5aAEYSmq3EY10x/lyb2zwGlHOnbmWfwbuJu7TABat/NJ98nfJE6LrI86nPaLjOcTAAAAjiSDZ1sIZrfpR1zgND4gsbdrYQtZu7bxsERGePQYSt0n+dHZJVnNwFlVB5xDYS/ftPb24cuKQd4g4bHTvGDDBeQ4P5+4kt/62rCdxg1+/IoNDZuWezGwEWVbwPxw65wZmgX2bQVYejM7BGWAcAWYjpl43QR/hfwxNsMvRh120kuYFBJ8aJe3aRbRse8lFAkGsxgx26ZOzwUuYkB7eCK0eIbIAACKwXwIKPtf15L7FzotZgJZCtFybQwmV760OHq3ADeLaAy79hClIymjlSTntkzBVSqdG3HcYASZaAAA8+P1mP+Ie+KwT2UPJ/F24jdR6GK9ybmbL+EINOOOv8ZazAj7o69OZJdLdRRgb8qJYsAAGGSNPpHsF68F0v/H2lGXMjbTKSnX78P5xxrWRzFpppBXrultGPSiKHwtIipzPSGEN+NegFq5xYcSgBCzh7PJUWRqoIPMeyG6oUjwCd2FUtpSKLwB5Tsa9GiG9p5NEtPt6igADMI35QYXfY0xuNXMcuyzIFQcWYqqs7iouCpJVs/pkfApCYx52uevtOnNCrERl5AJKTdrXCoYWW8vn9X4O+gUcAaJ0IAcY3YCjrYR+5M51Xf58hjaTrYTLNOTfH1WZ79lyDhLGwYmK4Lz1p+SRct6/Th+wOKJ95bW9HQtHFYWlVqz6Dx0Yxi8IGsZlrF+pUqXBuVfxi/Y4qKWRLMisbD8kQ5vwPVocg7flRLFgAF+SrFpygwLzBvbfQZ7a+D0BQIHL168Y6Ml5UzWiY5E2KBFsTyBvAXwt25ctDDDPy73Bb5CawL6waE1Vd98AOXntmad98J7McQg870Vo+DvPzkwWgn2yFYyZykO9zwqsFFco6rkmk2Ae70EYJJCh+uVrXuu25WvgBvASofAxNkohLhP8TeIwqDvuc1yzwQ/RoABO+J/R7lQJNdqWpHLm1vV9cJBcGX8q3jvX6P2/q+OQcgphW14VyIAKCRQfYmJpQI1Bu8ljKSXjV8LinHzx0hvNVc5Vxg8ZVlfC10w4BOaZRVeOX0w0CxkL+XuOly6WQfiNgqJH1qT23Ai6VyfnbaWTQfmd3tCcABbrprGaFx3WLHHP3Vi+0iGa7VwZz6xEBMrWYU7PzK4c3DIQyDaeJIvJcdfXOYLc80NUYqs0/R3i4NzBF6YbxRHBjmlMWBaF70r0PefBLQBIZqJwaJxnGtBXsWtXu+yREoVezAAG3OSXy07CP19ULno+1Uv/cns5of8fnmZxHzIWZ4n6TC4kMV9lTW7hO0UVV7NxJlh5Ny2QsPWSDbKQ9KYryyCqW1YnMYEXpBmKMFVSlJOOM9QC6bov0ACyCFqPts0BLszg/og3sp8OjbTKLg4t0inWZflks+qY8u7XzG1OHICEVEwPbWQIDTq5MLp5Mrq+qhoAmjZs0GERkbkzTvufmaNos1C3bCnI+m0dw6b3hRA6Ui3oWm7ZHWkv8XZXrwAejBS+p/4JM0SJN69D9D6k8Tc4xliMIaXCLKYpNyE5VNuA5iKrCSOlUFXCrqzj7HMJxhDa3j4Mlfft2LWyPbwDgCzRxCLKh5jEACQjf+zohTzeMvMXiKMuwLvKpz7Xlner4Gohh/+3Gk4FcLeIgs2hGxmF870fn3af5ZXJypQdvpJenGziSnjCsyWi0UDvcd1/XmGIQlcUelcnBaT4U3O8loytm5pTN5WJHyX5x7e2sUBwOtq6N2F6eMs/YaYGV2DRLhDOYLF5Z5i1LHgKFKPsx6oAmo8ioyEL+7G1usGXDzsLxXndPuE/OyJhuxj85R1hGXp6akP2bSOxqJn4qHvaYiO4fKTPBcc2MgovUL/WbOv/wZWKZS6o3nbc6hxs33gLb0A123aFcELpWyvBBEya70AYgi7a5FU/v3Bcz0z18lP8A8KCPFpblTWTgRnbbYCwFe3dWL44AIuOPiE7XAR1EdYMMN4n+UGkJZzc2Nc7jJIRq9iHFRuNoV/D1FVhVrFDP1bjQnANcOXigfW2JxuiYNkx/QaegJAxLdRV3gAf4vR7K6cAumZc3OOREE4xbwZyV1XE+tHeOfHOeFmzpBB1e8JRUc/qKG+65Vbxzl9Uc7KZVGXrli8tkKXnroC+Z5BQAAFSuP4yCgMNzbeishB6acnlQvlAihniNqJCw7hH32kpwI+EBZjLqU2IZ6PLUNYiMdx9+ZiUNdBdd4g4G+Qq+4N6xUoDjKI3N2oXUvgHANA8ADflaijeJbNytKA3Kbgh4ide85i1j4wus/UnCVpvJ8A8wcWKhxo+Wmz5bnZEUI6fasVjN2uAHJgjygwu+2gQiz/QPBMbG4YnKUIB/glx4JZ9RHzqsErDUnzyYd8mQJNAUBhnYxuXNE0KdWVZvOHGclA8RPJKRvwEXYUIJim6p1A9GiXY+r+4MlBjIFWeSRvwRGytpMujQ4bhOiLY51Bb1HSYpksJvcLZ/zJQC8e95rA3b2cSMOXr38AA80G5AU3w8QcX7QrunKq+xzA/OsT93h5WDclC9+WBtGYBWrmuRT6vqMKN7asKnRnw2ufkPCAam+njUdMcEZYo752ysr2FDLm9TDbMu0SEO+k/5X4mUzTk8qF8MUJDlO4A3uO4sChzh1U9Ix1XhDV3TLz09+QEfA3f7dMtvof06aoIg/LBVnIcoNtLJ4kIFdzz32ovCktDGCgD3U+EqAWPW4kdpxlSHJMxSo0DJT5CCcYVhn5WIDQfMFwOTP1f9QAAkPIGtjAW4LciiaRG/haK+rj/ppnBQEWXtnyfaMWeG0/Jj51Rm0ZIt6TWVYffTYW/7oxTmvF3/uch4aZelVlUB9YMl7lEWxzqC3ruUGBd3VtAciQf4hfqwxZeCCACQMjkJWnFComCT8AAwvqRcCmliF3V73Pevw0RXow45FF9HqHsEPW9Ir1n1FCpodmCeGOkSV7/Tj8B1jrYYDkkzcQ/zOc2QARVQGBKdTEUE+nOvBRbihwdtup8eia3XBWvOp1Fo14IV1fBLxFoC2w+aFpimsXACVnTVjzAL4G0TFWRJs5uyNYcayhe+QaajResMdgABoIXeTqwBVUQ9LBERC1YcEZjgXEqZIaZ2/RzGAScfsdfOvBRbzK6QiZVVZrgrXnU6i0c1wVrzqdRaNeZuU6/3XQ2mAHo+uG3uiLKe4+u2SWQAa1KZKUvfiziPGoCNMEgu0xR4Y81UyfjzbOiUKaMsaQAUVyjquSZFwH+6MOd4BOSwdHCCPRqHN7YEYpPeTx8YpSf2hFmAwTxLSinBFYr7ofJCoh9L5Recv9Zmwi3hycAC0Sikvp6unpmYZxwOSfoN5v3+x2nnsEO5noqV/jbR6hzPTltevmBwHzUFavAuZzrwUW8tLf6KB3uVMbEkbeAEK448+Z4cTCKvq9ynyk9ODye4AgSfcS1cyBDcss+9845b/Sq7gszfT5TBKNBwppaO50cjnf2aD68QSqELAsPq46gA/mFyj1z9ulpn6hE92bZZSe7QExGuBqSbYAAAFLMIFoqYjsjoiRdAZ5j3MnHeV3Fy4m/v2Ev3WJ+/hiUQmILp+p9MSIKmXRV4sumG4tlb2zo1G19wO1QQZINg76PpU5M7UFxBJ+BD8Sf4aqpjNxxR96qPtfz/ylqUkeLk2hhMrySUOxT3AeV5j0MKGX0U28A8jnmajOElixXXKz9fW2/Z1g6ULFZLAQA8HYE28LlPcCqJQYZBI0872oKHS/kMtNmOdX4FpGTo6o3oWoTIwAAAR61z/G/yPBcqLrTthSTae250L+TYJWS7i9124XLa2qfKT8T2plHA8QtJP8NVWkh/yLQCexBlrFNffoyEQKDe3JzqLszg/og3TC27lS+AGn0f7ex9+GV5/iuyjbdxcIW1qme/xShJgCuToo30FOzkY1CRfjioo6VjjARFJMEULQsTk4yqNSMbIXiEshRueGAA/f2IDkOj7+xAcis6XGaLeJFfwAA87XLgTCBEoPHR1GLGXaUDojLPxTwnmKtbNjZ3ChfEkQXWz0T6T7mqd1LWHG776H2IwAcX0FfkODWlZaBleo74X4nNBpU9CrITBwFqHxugkdVG+stg3ElnIJcPHhFs/NjxMKR7ydviTFJMEULQsTk4x4Aonr1gQlkKNzwv1kQ82HVOo8cYOkdO/rBHAfvLQAAHv7Dg7VlBG7Zbcmh17l01WS1uVBch4/WLryO5OSz/gVWcoMLvtoEDl69eJpUSmyknAltHA4jF/WJGtZNifqgk00GYV52N/YjeubJPRiHCqiG9TfC9vXX+GkEZLOS2nEBKWMuIOzQfwAALptH7zAHOBmRpw+oG+uxFzOsooIPTvrbQm1Vp0DwDIUXPYnNjiNwlg+KXmfjPPKY+C5FWOKC2QFtH66crNsfGSlgtSVPtBHK5vzyYchH071/xEjDEuPHeFA9uy4emJcJRvc3RD4cpN7gD5jWUEbtltyaHXuXTVZLWuN/2Ut4WlLRiJEBxLI75gScPZ+tO+2wOKZzRSAARGc6eHRi5X106nWXlS1d610DW4UCOL+dhJWcBqfRYF7prMGMy7vYev68wxCUKFCQAAAAAIPcDbUJhqMh1RYNKvk1FDp78pUc+lV7yzLNbAv0t+ofkRxLoHMsfq+SF+h1powlVk0RPmFFOrYB3YsAxAQF3saKv9S3eow5av2ls7XoK/JEOSTOzgKPC/E5lXB7XxSra4mCF6rCyHUOR6lTbW0AqGgn/tmR9Jd+sVsZwqbbZtehyHKp3u58MhQZb5ur4OHDBQAAAAH83CgQ13cHDNvPvKi9Wfwr19fE33rNj31lpKGoC01XG723NqqnWCr/obrT+vJOdz6IFI4/m+gQc01exv68gcAWaEEn+GqqdcLhgIeGPG6jW27vRgQwAHAmeyxfzo6AxfPZHz/aZcLDNTXoAbviogGJFo00oyoq77TI2z+ka4ogxAcXDQKwAAABuSPy7P6kGn2xQ3yBaFrkZqsLaXFohN0+LKd2mQf6rwrnbFYsWFdyPCpzYbNTUxo6LwFo3GkItMLAU1fFk+WmHKDAug5zEUg3aiv0+jetMlHjJRl2cA99rEOxOQpwGNc8kF4NPj/LKyQiaozigAHKAAABA+DkCGu7g4ZuACAmaKjHSn9RWq2zo/YeKM9JypRUc/s3FSI+hk1z4ngJP3Mu+YfJyioQLmvz2q0zH1DnQwWY+eiSCzT/mCrnYDIOuNiPVjwttDjA39wKmWZmBwRrbt4Zlx3XqkcbjqsQO7qmIYAAAIufYPVHRpb1jj+DW9Z6LzGKHtJrTFQBl1vw96xpSOMsBi3lVilbmNQ7ehxyHxBupLje7gNKVpTqmx8EkQAkvJ8AVup/jUdMcEZYogIOslljt1NosAjaXrvVQDUQyAKz++YY/3NAOYBmc3Yv9qZeifeBoFnIC2bTDQyu3mKsotq3qY5RZj6mR58Gd8L8qFGPu0oGTUEXPBvzILsiCULe8g3OvBRbihztsTYqeWk+/XBWnyZVbYmZi0d4oenAl2c+d19pANZE1mI1Cc7Shh4wnHuZNMbaFutm8971XQzNrmhiMxva3s9M9P70KbgW1MupibWj9Thudz22S/M+SDrrQkvBJpVIJmyZUI37kMco9XzM3OHGh1bjUSZDPJR4IEvEKwD/e52VlMtqHhXfhqqmANqzpSnuBlBRjP/+2/LkWzqIpDyvDeXmStXAixa1Dpj2KdYx5ndBMU90lK2zxAoqktc1kIDd92NrFcMk7a+2wwNt4fRgsEMABT6JgNKRxlPex4ZfjoLz6ayRwKU7HD+O91930EE8kGjT92lJu7CErl7PGYjCKow9QQNRl1vHLSKs/iAkJmAH/lnUVpR+25MeFOBUKBeKEVdHFhNWWybZ/l6YIdrZWl3Fw6potaN1I5xhL9ICZpQHbwCRPH3ERR2inrBEaHqJJS9mE9C3+opBvkRw+Gmnr7ciFuadSuePDD9XXOmHB/qEl8dkpjs6/MlnalO4rAlF7tnv43v+OGwGhhME6h1rqhfp49jxcO6PS8DL6tweW/qAHkHlMHw+fDWDTtkWOGgiMRw2WtOP+zMRCBNSMS8QDhLE/qmsZNFiDYY9W8I+PxCHNhnVYw7hgKLlyUI6USJA463gFhX5+64AtpWpusoT4DLw3GGgygmXnRoYT6+mubkdDYvjgz+qlKexPb8YXWfwZBwxuk8797NoBdJHyaMGS9pFw36nuEiO+HrUIYWo3f58kqT3OIjcD1C8JaWhaOoRujETHOM4stdbFkzSfWVTXpqx+Okvm+35dSnI3apHQuxv8i7hG82Fowaw0xxcqR1L5bfa9RFAmkoazXuRsjq4Jqz//uFMtwdS6fujFIc1IdaO//EIeW78SjJlnrjQjznyZeuMmoYmzDBP2q2Yr00gIQl0JdXLbdD8uMPyAcfLbPriEeMLQgIFGuFFHXkQkLuasQPboqMpnhUmymORrw0156oFAQyGvOvdwr0SzAyUVH1ZBxV9BKZCcgIgZK48KgAYgsLUkAT5RtlMe5Ix8J3F1L/P345G84wdyZo4dFX+pbvSKi6MHgQMsmcwWby8SDvisAPKlZqZsunWrDePrgb230McXLvSelKuF2WZAqDhZbydlJE1CroCPe5C+o4sOi+T4qj3QIxoiqF6T2lMapLvBOa3NQIzi2eHdl2+Px+Fym33eP6yrZVb9yGqg1DFsSdvr25gh/DII6kyAAOZvtjGdeWVH82E9+w6GKOC0sVKlB41UiXevS8/uI2euukZyRzlgI+85/V6nN5QhcFpWdGpK4Z2Ul6rKkEUmhPWJgCAu+pnyysADkhQX6F/7I1yB2d23li3Y3DYpZdhFrmgGHF58eASMNS9PyUrzufaqsAzF4vwuJvwEuth1ibph268Ul3Dv5gSrS3b2Qj9OtrMGdiAzdmGyQegbUPGOjZIosvbWd4wzw7PD5pxsMclfn1TkfGb1VxPh2NmwKVEaD//PvqKukmtj212CgK1Vm//LMh0w4dUq11kg2lSrNpVe2NCSj5W5PIzNYo/54cSx7auRsUiyiHoAGTfZ2f1cB31ujNwAASuf7TthDIzVwZ1cwqfmwDLaEHpvOmEQTO297h/uulidL5auAbjf9lLeZVgefHeGvJjdxdmQMF2wEXlSVGjhDFkpbRGR2HMADwA2QonN+58duOAx28ozIsREzhfrozvSj5kFw7N7kLZWLBQuhLCpttHltCL1vndTS5CJTDqdZboX6qiE5cUKr7//qnurZGdu9TJ9gRhYl9pdCeLdR5R2W7Ig5SkRgm53s84M7TAA5/CY8pVT+9M4QcdklhCWiZ5NndMABXAApTgAJXU+FNzwZU++FZ5+Bm0TinJirRl2l99jQX/xo9mNVNAAQNs8R1qC3MKh2Rbg8IZm9c2HiW62by9/RApGreb5RQUh1Lciq7+IG9t9D4DJ+aHx0ZLypmtExseZ1fAdREqQyhRTXAnzvKDz18j1KV3O/6aU3s4lFSxuq2XA8GdfbyYm5ZA6N4D1/+UazTCxAkADhH38xGctmdpgd9pTp37gFDkQQW1Q9q1bAoqxpNUnIHrHWGygncAXsCPZsvazS7o946Ooz6E9fm8UPA7fKQFAxrn4tjNkVwTr38c+JFlEPQbW00nxkw08aWcnhD3E8h6foZ6C+mKGe6kVXGlwsEbvqaNaXJONM+TB5dwxWz7BBBDrWIRwLMjs4UWClMJ7guwCfdgFOIz1tnyw4+LBzYHR53QDyRu0qe55o8MdUozWyd8XGcYf/7B1IxBgtgHJa0j80mIzhFmsn4HfaU6d+g/25g+B20GXa1ia9pks9zq6XXwCeU8f3Q8JPB3rIPKGJvNHW2e8sbBexBJFzYTHgqduwpYOS+xdCxJmh1Lj1tlY3wp7wJHyfQWo2xpEG8FH/rliGXxisUQsIvy2R3HEjFB3DERTfbLAccYC3pWEUwy38hOqK2t1emVsSsFL2HikA0SAjDfHQJ0onT5ivt7p8tB+ObhrJFEIwp8GgvTNpHhWrVcNsjUMMyovcOGM5VIC51RcrLD4ADS3ZHMxJ0oOJ6RVrtaJLwTXnZ9Zt4KuBlBBIgutYIN1d3S3c12xd6NSO7P064/5WIlVoxmbBeu7QSM4Ttr0D7xwplemX5yGkRQtFUA5yG8+on/x6nqszWDcBv7BR0VUcN8cwtaDtam0TYMcarok9jvVSlv/gliV4eiU2V2KPfjzVzgIbLWcCAgDEga9Sxx8rAFaNe1Rx4Ms82EgWXLfT1huidVEEJw37bBXi39JOCWZAp/Seq/z+r0JsN0L9VRCk2DIfPrAaQXGrsbYZU+ZEOxOph5VwtR/hCLYg3I+Dm+3YD19aiDzWZzNpb84LLpzWh2OI2wSN/y/XWQDGhKLiRLI2VtWvhqPB5NrtKd7Qd/2OlM0ZQgUNr8/4H+aqZgXRP5ra0Gv77GWuBC7TXVdAw+J2O2yPxWQWqjt6CfwXwh1JRytkSA2g6Hl5lPykuelT6rzLzabJclnDLLzznFCrVXDyC2pLjIZmags7fMZ4sC0TZy7+xNmbnZu2yGyDWXkEY+xExt+PE58jwneLutnYq+uFzMZ0XfKDAu6TAFyNUEn8nLExsdN331en9rlRqHHoYUaZV/0GCROhXkcoriq41XJNmcNUaurNwwdT0Itg+u0b0gqu705OlNd8VnkRCULvD2UAZXPTSoEtRdtM/GW2lhMTZv0XdJjvZvbv9NOzKueTZh0BWfsuraPx1FyCkBiYaLNLJV6cjRPyCkm5IkGgbUTHdKrAVpxDHh41HTHBGU05PKhfBvS9MZQqGE7Y/oWI1zRk0ALNwzPl4TRkNZw1drl2iQe2LuUe1m86Uzc4KAiy3VMSRVbntCIYQh7b1rIN0jR7HpQJ+4K7hDzvosnJFN/4Z0R838902g9xMsblNJnTroftmSYAD9reF2Inv/81/f1WAEmhrsiKynuvOh4dG07mhHpVQNGGdbPL07L3qCYN2LH+17t9xhMLmCR8VMBXCuy3l/g/xwQ1p2KOOlErc5lOV/xxigpmO6GN1Z2YrZEnc0Z+Gg5ArzPtRBWEPbdzZ8oozTEyUdv4Gr9T5PMp1ybeVbky0TxaaQotA1Ivx/rRWThfs0N0bIwhU3xLlA6yUXfxo9Q4JyxZKLc8QaDXwei/UGXlJHASFIb+lZToVKXAOC0IWyUFpBE5M8VhUXumgVtUbJwgp57P3hRwTvPAMDEs3oxSw1JusAqSKtmcdsg4nQb6AZN9ysgPTbwNISkeHoPwYIdAgApMS4K7ANcemhhJCY6fb7bWrq9iMFbxnVMpIZh0Hpdtjd7gLV5p7XTQzoL2MUzh0jlJKG6qlOAsY4T0oa6499+TNqR4/EdlcWwKmY7pxQbCvz3gMhi9EkJxAFZ6EYUfSKe2ntwvg9LZBD3qlLzKv13r0CXT//t6Gb/K9cm/mMDfyETi75bLmWJh/RtarnLyCPSQ60deAAC3idQIDT4kULp5Mrq71nTI3eMIbbjzW9GkrrKcYrNej02rV81drM/FSAGC4TcB/l/iBFeT7tkUZcxd/K3pOGm31GpNtE9Zwi2klqTWqhgF59lPJlJeYFJSSSbZgQtTr+Nm/IkjcTxRVEe+bq1uouYz2KTR7yuKzH9eDe4VKr1aiRDBRLNL+D1CkhMaL+s65XYzElygWbiAojMf1ehEzR0Yauph7EIRJ56iQiM/xEaq40hiS5l1lIn8corQSTPqYyE90ssvahWTmahhoVa+MxhzZELmZ/ygO214aMIOHQLMy9oNshgQY7HOmTmEP5gw00qRZnA2dusoEwv/+iJclLDuut8iwBIY2eTBRkoIAmKvVmrvU1MSjR+RHD6iwUDVbkG2B5+kBwWiRVBHmxjLNo+Y58XopfZNvb0hPz7zuKJkwADkAw2dJpBzAx14EtsADsUstlMdG/Yk35gPLkbqOAB6MMDVN+YOi+SLLezFugNk1DW3sZabzSAi9b56cDFwUUP6Hi/HHLJX2sa3MmkJN89mtjjA+V/XuINrsNjm4bPTTG2zFb+4Ne+TeNnI/49wAACRYwto/eXzhG+5octOjH+453ElItMYS++xRRdWlXfuEsC8mbol1KjurSHJxKXfVqGzexyQu6Lz5r2PCI8fGL4w9togMlMvbQUe61cxclCDLZIvCL+WMiGBIFQ+l+jjX6rVty0l51utnQ3Az0yjYvmnh4Ah8vT3GszoeU4VueFqebTnlTCxVdZra3OGySrVfoDhScBHkVm/Ph/+q76j7X9EXZZkCoN+vopJdVRrcp9vD/0vqwv+Ja4iBocS2lnxInu6u1uhyveTskCflbeEulKlCdlMzGHUIc7YHO2S6yOG3sbOe17SScVXI8K1qXpYWRql179LZzRaE+vG0K+mnFl7yAELmi10vZ7NwTBYEu8rh/47bH7Caf/+UkL8tXc7DuBggofQSh7rUWrBOPfDWgAAGLUP/z01mwo6rKTuUgIv2xgZtjlabuPJDDZJfEwDetOda7KE0R9OPVUFtmdYldxmUtOXA7iBn41zBuxqOl2/d6Az7w7TMANR1dTIkSlAD27lv6AXaTsaQ263vy5620c5ziGOkEUIt9jWU2dyilXeV9E5kp22iN824n81/xyjEnA8xezzZYemLRiLX6EezQDjRMEI9uL21kSpEM2ofe9KQlao0AAAAAAqc/U+9SbKqI9GbtG9Jg8pC/M5jdqK3FzN806JOtYO5V3cq7uWkjDAs6oKzzRh2Ar41/5En0RMNnQeCSTDqtXD3cMSeiHlcPZfebubRvh0OY7hfN6ZgGqpcTm66WFccT5+waIYAFor3Qlj8G8isihxjHmG1g08PllVLIJmXCWQqUhj3THv81RfPnKmFNujrTdj1AAAAQPg5owBoZZewubbOoX25N3Pt5r/uHH0fEHQjHiAR4l6KwVtv9pYNCaqu/2cdd9U9KQudLfqtJodGQpxfuXYu0zGNS1aqUEz+/1WBkF46hRLbyFK3+5TOOnanD6K+5v11ufN+69INWAvq+yOCrpnCoIaM5x3fZXW/aJirIbkh+y6lLli9S72A8P1SoAAAA4sqF6ILMgYwAe24qFG4+Jw9KCFRwfkS9hWSPfPf+v7MUfk8rLsJJOaffC24uOYSkiqax/TBbAdlYZNIHOBcKehcrD4sa0cOUGBd8EkhslGHHfsNRR4X4nMjz0MKQYoCJqtx/9DU2uqBIRdb81TVjHWdjz9conmPcIAZc+7mwIH9nN+QfOEMG624mUE+8lvobdLi5AAAAAAQAMDNzlhtorQDUWFCe3i/J/u+KqjvL0y9ngvHmI1KR9NgYRiLYcTkCpdPQjubRj1WL/B4alm4E8FT8B3uAAAACZwcLcITkq4VT2XzsSYJUFlJgsyt9geA2/nUqR9r+iBDsTxcfMIrprn/pIbJRWri9uOywK6N4rLECiJkVA16aZawT04Sa4Rcv9vJWwbqSTTSK2TcWbocIJiHzykrrQBQonm3iR8WqOdfne1zbjRNAAACNu8IMY6lpSCwBuviOYemmYhNU2IgytsfRs/99cpCiYE7OnU90y15BWlNrUM4peRirM+W5lFHV9Oj3SJBJOHrJBAY6Nb56UUKF5+ly51xfR7PhigdFbY1yBvelD9kRDPV0c2eYLV9KrqMfriPD8SaqL6J76Ee4p/AAADKEpkZCSKsJp8FL0eQS6K0+VUkkoA8jKNjxQeTV6dnqlRu75s2VbBmhPc8YLN2bYfNGRgSUrc+k+dWUeD5fIAt+jc094B++6CoV9x588SClG3+z2WF4Qa8fdLb7E0Q7Qa2SBdPJleVHY1EwgVZitNUHn9ybYdVvRpK6xbo4AjwDGhrAwDwAACMPE/F0HcUrGvU1UxRL20WPABfcqpQzpOBHv7s5hjea2F1xo8piwaEovarpmC3wi+azj8yG1HYKg6CzYq9dM1aeBkzHBH/EeTSxd8kZVj5S+n/mMIjp46aO9jjjqhkHgDF7HAAAAoLMmwkT5LE63qcHs4cEHExJv9MbUmWVyeGZiogHoPW9gNdw2jwusuJMQx5xws1XWkOmpu1EhbK/3npp6DxUsNg1ZG4VVo0u3qw1MiavpjJEIgnK8AAAAg3THPT0MvMOI28yhAjFJWCIOU/DPVka8PZeSgiWaxXuHyeZDYabNQ1lowgsLecAT44rRZLvpHxsOaKe2STSeiiMk2cY/0/JespkLtkgnONcWuGb6mmPreNWrQ0X8DAtJCQ5CIy6IN03YXgAAABxa6T23084b+UDj8DN2M2FsF3Fkg+DRjnk2hyr43LEaAw0oY9rvVr/G2vMtDQGlU0wS2g17zi7P/XI4jcE74gOBoAg6qsaslZKw5pO70vFv3P5iHqS0WcLuHV7HX9j9AB9OPOR4AasRDfHBDfWjrtOQrdXsNMyRXz9f5Lzsg+tyCnl7NpQlDxecDqPImr6RWA3IuoWbnUwAAAAAAAAAAAAAAAAAAAAAAAAAAAABFWElGugAAAEV4aWYAAElJKgAIAAAABgASAQMAAQAAAAEAAAAaAQUAAQAAAFYAAAAbAQUAAQAAAF4AAAAoAQMAAQAAAAIAAAATAgMAAQAAAAEAAABphwQAAQAAAGYAAAAAAAAASAAAAAEAAABIAAAAAQAAAAYAAJAHAAQAAAAwMjEwAZEHAAQAAAABAgMAAKAHAAQAAAAwMTAwAaADAAEAAAD//wAAAqAEAAEAAAAABAAAA6AEAAEAAAAABAAAAAAAAA==;" vertex="1" parent="cOocZkf1hTMngWwaIAUV-2">
          <mxGeometry x="260" y="120" width="60" height="60" as="geometry" />
        </mxCell>
        <mxCell id="cOocZkf1hTMngWwaIAUV-41" style="edgeStyle=orthogonalEdgeStyle;rounded=0;orthogonalLoop=1;jettySize=auto;html=1;exitX=0.5;exitY=1;exitDx=0;exitDy=0;strokeColor=#000000;strokeWidth=3;entryX=0.5;entryY=0;entryDx=0;entryDy=0;" edge="1" parent="cOocZkf1hTMngWwaIAUV-2" source="cOocZkf1hTMngWwaIAUV-40" target="cOocZkf1hTMngWwaIAUV-10">
          <mxGeometry relative="1" as="geometry">
            <mxPoint x="290" y="300" as="targetPoint" />
            <Array as="points" />
          </mxGeometry>
        </mxCell>
        <mxCell id="cOocZkf1hTMngWwaIAUV-47" value="&lt;span style=&quot;background-color: rgb(101, 118, 134);&quot;&gt;Virtual Network (VNet)&lt;/span&gt;" style="text;html=1;align=center;verticalAlign=middle;whiteSpace=wrap;rounded=0;fontColor=#ffffff;" vertex="1" parent="cOocZkf1hTMngWwaIAUV-2">
          <mxGeometry x="440" y="4" width="130" height="30" as="geometry" />
        </mxCell>
        <mxCell id="cOocZkf1hTMngWwaIAUV-8" value="" style="shape=image;verticalLabelPosition=bottom;labelBackgroundColor=default;verticalAlign=top;aspect=fixed;imageAspect=0;image=data:image/png,iVBORw0KGgoAAAANSUhEUgAAAHMAAABzCAYAAACrQz3mAAAACXBIWXMAAAsSAAALEgHS3X78AAAMb0lEQVR4nO2dfXATZR7Hf1DapqVNlraQlL4kbfUKIrT0RIoWW7BoRecExxHn5EQPBxVFKqfnwQGCh6AzzljvL2+OGcOJUvCFVE8QVC4V5OXu4FqPl3IMJYFCkrZJ9i27eenu3h/NxjRN27TdkM7j85lhUrIvv9189tlN9vnmyThJkgCDBuMTvQEY5cAyEQLLRAgsEyGwTITAMhECy0QILBMhsEyEwDIRAstECCwTIbBMhMAyEQLLRAgsEyGwTITAMhECy0QILBMhsEyEmJDoDRiMD1c5DS1X/rnU5/fN9fjYSq26oKMwu3SnIEimNftyyXjUfOuR1ofsZEedPxDImVkwr/H5j7WmeNSJB+PGStTy1bovnwkIPfPcrHsGw1ElXj+f00U7+swz2zAfygurQBAkEEWpSRAkkyhKplea8oct9vOXKcOh018tSRqfVOML+Kd1UXa9k+lS+Xt8AACQSxTCA2XLQRAkShQlkyBIppc/nzqmxSZM5praxnqby/Yay7MaJ92dFssyETLDH5tEEUyCIJk2HirsJ/aVB0x6hqc39QjC7V1kZ6nH61HTHDXoJSZMZngtKngANfzhq4KWke57vEjYaZbl2SVWh0UXbVpqsgomq7WQl2WADJUGWiynwMk4os0q83DwX8Mbi6wmQZBMW48YQq3IF/AuPXPp9MrBVpCj1kJOpg4kSYKLN34caDYNAKwAgBVv1l21Bluscct3hjEhNuHXTM1EAkrzp4M6nQBJAviu5SBUlFTC3FurQy3iQkdrzKuD4Iu9qeYKJQiSafvR4qfCZ9BO0kFqsgoKJxfBj1f+A5p0Ah69a0WoBV7rsgwmMxw9AKwFgLWbF1yxBlvslh3HSuJyLY+FhMssL6mAe25fCIIggcXRruSqZbFPyU8YtEXwZO3KkDhr5xUAZa4yslgTAJgVWeMIwB9NEALLRAgsEyGwTITAMhECy0QILBMhsEyEwDIRAstECCwTIRIuk2Tjel/aGs+VjzUSfqO9tf0MtLafgSmEDlTJKgAA8AW8o13tLgAwbj9abA5/0uK4Au+Z3gEtkQtTCB34/F5IDdYcBRT03mDfsuNYiWW0KxsNCZcp00naQ3+fuXwSzlw+CTlqLaRMUAHDx9R6rQDQAADGrUcMAy5AeUigPCT87/qF0HO7ze9DZhoBOZla8PpjPpBag/VMb/yjKGHdXuEkTGa2OmdF5fR5S2mOWeJmXGUuxqnxBXzjwufppgftkJbZBQDG9QcKzAPNkJqs2l9WUl7N8p6ZnaRDz3B0n/3uoh3QRTug3XFxqFpyK2z449eFY6JDOpwxkwECAFhz76dVgiA85mKc8xmeNnRSNiJ8elhsxCqKUoMgSMZ1+/OG3SrqF32u9wV8SxmeWcJ5PTMcpC3b39P3QIqIjVgFQdoiipLpd6bh17tZjCmZ0VizwPQMy7MLSY/zzimafHtZwd0bV+/RmZWu89w9+6p8Ae+DLM/UsV7akJyUQjxQtnyXIEjGF/cqXy8ejHmZSvCX5Z3lz+6eMuZOi0pzU66Zr95/cLHH66lws85azu+Zwfs8an1OqTRbf09jMAOrSISx8QU3ce5qa50/EKizuzvKvQFvAe/nskACEH/9hFUQwCSKkvGlT3IVE/vs/MZlkgR30zw1i+JcZbyfUz9e+eJ/BUFqEMX45XujoXjLXL1gT70kSXdSHmo6zVEG0uMmon3UqDDMh7KfYpNyIMr4SlN+TC/05iXfLGY4tsJJd9f2CD3TeD+X3dF9NerB2Xv9ewIEAeSQmFUUJaMgSMbff5lviaXeuvv3671+71Lex1d7vOxMr9+rtbmvZ0Sbd2XNhj4xUDnf++oXw8/3DgdFZD5b87edl65f+g3D0SmxLhMhM/zRGszAGjce6v+Osf6+T5b9cO5YYyw1Uiakgr/HF01m+GOrIEhGUZRMmw7rLZHreHjW226WZzPoiHfAgxEhMyLf2xuo3nRYr7hYRU6z/oD/loFEqtMJuC2/DDLTCMiaOAWOXjgMN9yD3pgJRRjfWGQNtdg/mYtaAAAEUciNXECTTgDFkaBOJ2B28VzIztBCdoYWOkk7NP37w6E2vwwA3gWAd7fca2kNtljTm98XWwAAbjhvEAMtmJ9jgLwsPeRkamFiqgb2Hf/rULXkfO8HW2stoRa7rblYEbGKXjP12iIoK5oNkzU64H08fGz+AGYUlvfJwA53lRAUu2F+u3X70WKDPEE3KRfuq1gMkzU6SE5Khbc+2QzqdAIqiitDLWEEhMSur7q8YMexErM8oXrmQphC6CAzjYCLHefhh/NmmFdaA1Mn6Ue6b6Hg9vqqy/U7jpUYR7LB4Sgq06AtgrLiinhkYAF6xYZQpahAry0a6Qs5bKpnLQzVuthxXslVawDAoMSKEn6jHaMcWCZCYJkIgWUiBJaJEFgmQmCZCIFlIgSWiRBYJkJgmQihqEy72wZ2t03JVYbTFP4fknXDqbbjveMSKAsFvSGxPt1vbdcuDCe5N9x6inSWK3qj/eK1C3DxWm+EcQrROyoMzY2qd8cKAEbozcBawieQHhIOnznQZ2aaI+FM+0nIztBChkoz3Fqh6OSb3/fvktr3/UcA0NvdJt/W76LskJ2hheSk1OHWAgBoBgDjtuZi40gWjoYiMokMot/OyznYc1db4NzVFshM00BmGgGMNya5TQBg3PyNvl+cJGl8ki0zXe2P1n9KcyQ0nz003M3fBQDGTYf15mgTdVm5YHf9dLahwg5O89mvwXz2awAAmJql77dsFCjoPTgbXv/WYBnuhg6FYrGRgxs8xInzJ54mWXc1y7N32N02XRflSBpo/ihJg1CU47W/F1iGqrd87vuzkiek/EoQhFo36yxzsS6NPyJ3KzNAbKQhGBsZ8ug6sJ6tOXH++KN2l62K5phbu+mu9MHOOFGSBs2iKBlf/SLfOFSt0RDXdN6+NWT5ybajj9McNY/h6dIu2q5leAoA+shsEkXJuPbT0Y9L9+TcnYvHj5/wCO/jfunxMrc4qBsZAH1k7goGusyjqfPpWpLo6O6osna2L2c4prKLsud1M44J8rh7QZlU8OBsqP9sqmW0+xYLNz1q+dYjrQ/Z3B11kiTBtNw73lm9R2eJZ72nK3fXj4PxxXOKF25+/mNd3AJVH/y223DZ3nafzX1t8ZzihabnPtIa41VrIH4WudmfC2Pmi0PhzMlbS0zLm/UozZO1kihN4/yeEopzZays2dAsJ+mUzqN+uMpJnL/WWhfoCdTZyevl+VklbGFW6U5RlEwv7r152dfRkPCWKedRSZas83jZ2yiOnOzxslG/ZxeZR5Vji8PNo777RMt8i6O9muXZKs7nKed8XPYNV9/MrXxND9baJQiSad3+PDzebDQenvW220k71b6AL+YbF5HvEsMeQ7HFjYf651HX1DbW0xyzys24cl2MK2ooO5IImRHjzYJp/YGCMSc2YafZeOZRRVEybT1SZJQnsjy75Lz17PQB62XrITONgAyVBmiOjGm82W33Xw2NEB0+tm0iSfg1s6x4Nvwib7riedSN1VcaRFFq2H60eIs8QTORAIO2CNRpBKQkq+C7loMwb1pNn1zvqUvNsdYZcmzbm80YkFkBhZMN8cqj1oQ/cTPHtk0EuNcEIbBMhMAyEQLLRAgsEyGwTITAMhECy0QILBMhsEyEwDIRIuEyHW4bkJ649P3KgxaGiFPuVSbhY9sm/Eb7odMH4NDpA5CarAqN/TrKPGorADRsa/6pC0zmVNtxONV2HAonG5QYZ1amCXpzvQnvBku4TBlfwBsaNFjOo6ZMSIUcddSf2IwkNHTo698O/VuWV7ssob9PtJnhRJsZ8rL1kKkiYg1th/KvW48on38dKQmT+a/r741bu2jfMob3PO7h2ZmUh5zqZPr+wq2/xwc3XIOevUIp9A0H+/+ircykzKyNc0rnPujz+xZ0UZ2lNlf/jvHrTivEcKZsht6xbY1DzZgIEp4BCuel2s/0Pr9vKcuzSzifZ0Yn1Xcc2LA8qimYRx3xdzReWLB3Ge/3LvL6vXd10w6Dm3X2OZDCYiOUIPTmX9ftz7OMYvfizpiSGY1VVXurRFF8jOGpWQtuW2oUBMn0QmN88q8r79pdH+jpqXN7ussKsm+x3Z5X+efVe3TGeNSKB2NeJiZ2Ev7RBKMcWCZCYJkIgWUiBJaJEFgmQmCZCIFlIgSWiRBYJkJgmQiBZSIElokQWCZCYJkIgWUiBJaJEFgmQmCZCIFlIgSWiRD/B1YP4UbK04G0AAAAAElFTkSuQmCC;" vertex="1" parent="cOocZkf1hTMngWwaIAUV-2">
          <mxGeometry y="680" width="50" height="50" as="geometry" />
        </mxCell>
        <mxCell id="cOocZkf1hTMngWwaIAUV-43" value="" style="endArrow=none;html=1;rounded=0;exitX=0.5;exitY=0;exitDx=0;exitDy=0;startArrow=classic;startFill=1;strokeColor=#000000;strokeWidth=3;entryX=0.5;entryY=1;entryDx=0;entryDy=0;" edge="1" parent="1" source="cOocZkf1hTMngWwaIAUV-40" target="cOocZkf1hTMngWwaIAUV-49">
          <mxGeometry width="50" height="50" relative="1" as="geometry">
            <mxPoint x="380" y="310" as="sourcePoint" />
            <mxPoint x="450" y="150" as="targetPoint" />
          </mxGeometry>
        </mxCell>
        <mxCell id="cOocZkf1hTMngWwaIAUV-42" value="" style="image;aspect=fixed;html=1;points=[];align=center;fontSize=12;image=img/lib/azure2/preview/Static_Apps.svg;" vertex="1" parent="1">
          <mxGeometry x="416" y="90" width="68" height="54" as="geometry" />
        </mxCell>
        <mxCell id="cOocZkf1hTMngWwaIAUV-48" value="" style="shape=image;verticalLabelPosition=bottom;labelBackgroundColor=default;verticalAlign=top;aspect=fixed;imageAspect=0;image=data:image/png,iVBORw0KGgoAAAANSUhEUgAAAOEAAADhCAYAAAA+s9J6AAAABGdBTUEAALGPC/xhBQAAACBjSFJNAAB6JgAAgIQAAPoAAACA6AAAdTAAAOpgAAA6mAAAF3CculE8AAAABmJLR0QA/wD/AP+gvaeTAAAkd0lEQVR42u2deZAc1Z3nv7+XVV3Vh6SWQAKEELCYsLEAj8CABYYRmEMIJKGjC7GemQXvjididmdnvBEb64jZ3ejdmFgPu17vLBHjMMYGD8zMTrQAGRhOe5AWr9n1+ECgg2MYg2hd3eqr+u6uqvztH3V0ZlZm1auqrKrMfO8X0dHdVVmZWVnvU++T7/g9QIcOHTp06NChQ4cOHTp06NChQ4cOHTp06NChQ4cOHTp06NChQ4cOHTp06NChQ4cOHTp06NChQ4cOHTqaHqQvgWT09XesnKQ7wOImsLnOBHpiyY54/Nzerp7L1q/quWTdapAQAMBmVkTxEnRdctHfG8nOec8NmKcJfIJBb453d79+dAMt6oKjIfQHvnTi37LgPwSbq8GM/I8JgMFsAmwi3t2JVTdfh9W3fAFkGNG7Dlx9A7ZvN0TEfzbevexbGkYNYd3Ru+UblxDR82C+ipnzJawIYOH/IoQwc2Azi+TaNbj0Kw8gvrJXAfAK6FXe7h3Oxra/eVPncV2iNIS1Abj1mxeTab4J4rVgLhS2pRqwCCIXgeRcCcT48h5c9ke/i47e3kiCl//yqWl/Jw1hbHrj+q5BXbLKQ+hL4BKb+2ME3g+Btd5fW/k/iCj/J1HpJ5OexMePPZUHNEzwcbU6j8EsCaB9fxfmzNz+zQc4pguXhlAqVnX1/AGAjVbwyEYhOf62/JAAiDB34jRG3/hpOMDjKugVweOG9nftYnL693Xp0hBKNMQMGAz8oStkZAGQyCHz+eepACKRwPDfvRG82lACPJTA40bBs21H4H/TN8CGLmQawsq14PzHXwJwsR28SkpK5UpaeF1mPI3p9z9UQTclAaWLT62fuU2XMg1hxTBNI2WrAJ21XJmSetSYRIARw8Sv3lJFN6sAWmpNTulSpiH0jmsfjRP4PnutR44aThQuG1VXUgik3z4CNs1Agdcs3awIX/Epxu4NR7lDFzYNoWusXDN1O0DneOqncFR6oMKDwlNJc3MLmH7/A0V00wleAT77diuXpye1kmoI3YMEpcr10ut20FkTLgFpU1IRw8SvDqmjm/Zaz3VfRKSVVEPorqIMbHdvhRH2atDZSipgAXJJRYutpBOHDoOzWVV0s/r+GDu1kmoIy1V07fRdDKzyLDuEcgAdDTNkBVJQCWBzIYupDz7wB77g66bM/npXTEzeoUudhtBePphSxdqMqXKZIsDRSIOyllSAACHyMIoYJn5xqH7wQqabMvsj1kqqIbTG3Y8kQEUVtXYzWIF067gv3UxatHUJRCrWkEJg8sgxOSWNgm5KbMeE+zYf4KQufBpCAEBvLLsFjBXudZ4FSFEoV1ShfiwMWwOEraU0N5/B1Lvvq6KbMtstz8Sn7tSlT0NYUFFIqJEVrPy/DAI7G2lsSioKY0kFyHBpJY2wblY+t9KxtJJqCIFLNvcnCXSv/KwuS2upEEvKagWwCCRRvpUUBJCB9OFjMDMZJXTTHdClfwp/bd/0JndqCBWPieUrtgJYbtPPSkA6WLMqKxPlVdVZIxZqSzOTw/Sx91TRzTKquZzJZchNbdEQKh7ESLmz5wUkOe8CLd0WS1OZmAgsKN+gU6wVRQzjDiWNsm46aj3X96CVVHEI1257tIuBe1CVPeeDXq2kS88Xx4/mlVUUakmBySPvwcwsqKKbbk85L/f2q189060hVDRmMH8vQD2eCuoFZGlsaKWBbVYlXWqgyWVzmDzyniq6KbO/ru6u5FYNoaoqSuiToM7lKWeNKDwm/C4BS8W+QyOO8bfeVkY3pfbHok9DqGCcd+d/6wbz3ZVbYCoB6Tbjniwd94XZh86pUBCYOvY+cguLSuim5BfIPZsPDPdoCBWLxURiOwDJexEXID1uC+0bCIeS5jc2syamjh5TRTdltutaNBL3aggVCxZI2WspaYl1AGZplBH2uYR5ZkWpdpRS0ijqZsXtuJA6Ut1WUiUhPHf7w8vAfFcZRFSlj9Dt8pGAaytpQVmXlFRYBnwLTL/3DzAXFhXRTXfwrB2iDNx9w/8bXa4hVCRySOwA0Old0UkCaemwJ6uukgvcjh8zy5g8fFQV3bTD5/6yJC3EtmkIVVFRFnLqUxVIl4RPltrONvO+2GFf/G3EMHHobWV00w0+l/2lNIQKxKq7H1nOhDtYZoiaLJCWfkO3e0dyjKYp6unU+x/CnJ9TRTfLX1p+Endd+6OxFRrCiIcZ550AkvYy0ACQZB3G5qGkWALPOsXJNBkTR46popsyICc6OmiHhjDqKkoi5cZb/UBaajjblCZnK+kSjFTM0GbEkT70tkq6WX1/pnpKqhSEvff9j14At5cZox9AlrKrOTrvnQ03ZJ/sO/XBPyI3N6eIblYHnkF3bnolvUpDGFkXNXYB6KjW+V4zkLbdWO4PhX0EjW2kTQFENgmTR46GUjer1nr1AR83k+YODWFkVdQtuZAfQFZorCn+Leyz7anYaGPEMHHonRoLbTB0s9Faz+tJ1ZJAKQPhsm2PngvgNokWl/qBdG0lRWkwd3HETD4Lm1Hafvoffo3c7GwNtV54dbOKixZ++Pab35harSGM2hs1MrsAiteWxqIGIGkJyFJKC2eNaAGy1KAjBBgC6cNHVNFN+5Nlk3wBBmKZTO4+DWHkgvrsU5FqGaImA2T+HyZaqiGteUlti8VYkgUjP+N+4p3DyuimDT6Pl7DgPg1hhKKn75HVAG92B6g5QJItgbDlfhCOmrDQWjrz4UfITk8popsSLzFx242vTq3REEYkjIzYAyBWnakGgbTlB156PF87UjmQlg5/JgMTh4+qopsy78HIxjK7NITReZspKbhcgUQNQFpGxJQeIlvumWKeUqbikLbi0moG0u+8o4xuyoBMUKOVNPIQdvf9+fkA31y1dcUTSKobSCIqZ5SKOdqKKRKXtHT214PITk83rpsutV7gdFPuuL9502tn12oIQ6+i2APAkL6/axRIcqkdyTLv0AlkKUWiAAuB9DtHmlLrBVA3ZYAXWWHs1BCGPQgpuYrMLyC9cl4QPBcSLf3EkD78jjK6WXm70gMpDWGIo2vXoxcQ6Cb7sLHWAunJYrE/sVATUqETf/r4IDLpSVV0U6b/5Yub/m7kQg1hSKPDzKbs79E6uqWJQJLLkDZyGdhNTmUlEAykjxxRRTe9T6R4eIbIsrFbQxjSMAWlWAYu34G0DE8rG2PqPDbZ1zc04vb7wsjrJruBZ3tGRDwJVGQhXLXrsXVgbJIrn80FksrylForQ7KnvgBhZvAEMum0Krrpxr3z6Ruv/dHYeg1hyCLDuZRtMUHp8uMTkM5kTyjMpBDW4Wxk75MswRjDRKGBpum6ibbrpsxpkmHybg1hyILITLmN7WwdkNZUiOStrOTswsjPsEgXRs8EptZrom5KvQeKbsd9JCFctePPLwLoeu+KqtVAli+oBmc2DJGfUUGFWnJ28BQWxyeU0E1J4G/4wsvjl2gIw6Kisdhez7TarQTSllvGnuSp4lJrIj+zIn34sCq6KXNcMiM6syKSEFKpNa1KldV0IN067qn8x9lpDwJEDJNHjqmjmxW3K/xBGsJQxIrd3/4nAK6VajxpcQ1pU1IHdPn2mWLHff737KnTWBwfV0U3Hdu5Qn7dpleGP6UhDHqwuB+1TZdoLpCWdSkgnDUjoXw421KDTmlmhRq6aekP9d44S7E9GsKgM0jUZ8/1Kd940hwgLSNiQBXuH8neYgoBiDjSxUxsQdBNNFk3vTazjldgM6UhDLKK3vfoZQA2litfLTA2AUjXlIjC0m9o2cyxZsXc6WEsjI4EQze5ybrpBnvZ07TxhteGL9cQBtZE+QFPegIBpGP9Qse40aUUGEsz78mIY/LwEWV0kyVgl17QR0PY+iCpDt0mAun5mkJ6C6LK95CldIjW+0cD6aNH1dFNif2ZJmkIgxjL+r7/aQZdVfMMeD+BpApAOrot2fX4hVbSYoLgAoxzQ2excPasIrpZHXgCrv7C345coSEMWi2YM/fWVHtVAhLNBHIpA7ctPaKte8OipBAgoyM/vUkR3ZQBPieoT0MYuHfCfe5M1AEkNQNI5z7tv0tl3bZt8V7RwOTRY8roZtXqOL+zBzSEAYqend+7EsCG6ky0GUjnYBnbSk325dWK95DFVtL5s2N2JQ26bqIp4C1tR/jMda+MbtAQBuVNGJziagUfQQLS2g3hALKUNlEsNeiAACOG9JHD4dHNmpZ0q7BBpW8OMxp9hpGAkBl7lj42giuQ1Cwga7jndOYldTuF0oCZpSlO+b8NTFjXq4i8blbeLn9adL+GMADRvfP7nwPhCvfPuxVA1tjC6sz07VzVtwQ48t0VpftCgcWxNBaGh9TQTbnK+NPXvDx2tYaw7SpaXUmCCaR16Wzn9KbioG7HQG8jjokjh9XRTYnTEhEYxhZ+HS2OFZWEpf1AeuUldTxXaiW1p0ScOHZMId2Ueg97NYRtjBX3P34NgMvtjIQASHK5vyyDs1hDCtvfmbE05s+cUUU3ZY572edfGt6oIWxTmDkPFQkNkJY1CwHHOFRYlFQswWjEkT56JFq6iZrBs1/RXLizdIdbRwl7ZMq8c6my9gNp7R8ky1xDC4BeSkoG0sfejZZu1gW8ZQVjovvBTBrCFsfy+5+4DqDLaqqJXDNktwlIt4EEtk57J5BLDTiZiSnMnT6lim5WJjL/76XXvTD6eQ1hi4NzblmZwwiki5KSvZa0zUGEyHfcHzuqjG565uK3shji/DMhhZAJgvdUZicMQDpaSd3GlRZVtTDFiQqATh59FzBZCd2U+WJgYG9YlTSUEC7re/wLAF0iz1oQgfQ6hldHfkFVCx34malpzJ0+qYpuuu7P9hTjomteGLtBQ9iyBpniNJYKa8aHCsji9CZh387yQrKOayt03NtaSSOumx7gObYLZ8d9CCFkYmB3VbhCAaTLgHDbXMJijWnfvjiuNP3uewCzKrpZPlnE+REx+tDPQkPYfBW9iYD1EsSEA0gbYM4HRVlnvfW42elZzA2dnlNEN6u/D8K6z28c3qQhbHo9KFI1z5gPDZCW6U3CubuirhZm21O+43725Ok31dHN6sflEC4cEy4I+/sFEXaXzURoCZBoEpAEtuYlLcBY+m2tJW3dFwIgg3NjQ38CwFRBN6VoZaT6BtjQEDYpeo6uv5mBteUAtQJIah6Q5FY7Wlb5JY8f8Fsff/O3D4Lxf5XQTTlaz/8wcfYmDWHTzjavGmWfV6SAzG+TzzdTvpgMWe4LmejZQmEcUEU3ZXZucLjGkoYHwv5+AaadVRPshhJIr477pfQWXFYzCtMU+GsAgGkOAMgpoZtyp7EnTEoaGgh73l+/GYQLKhX+UANZNlrGsSHla0YuZOkm0N/Pv/YnHwHAz+9ZcwaMnyqim55PWQ5x3q8TI7doCP2OilmXywt+uIEUlrGk1nXti9sKmETP2N4vuylpNHXTCz7HAykNoZ/RN2CAaKf88tRhBNJtKTVLH6F9G9OMCRt0Rjb39JKSRls3XR92fk8w79l8gGMaQp+iO7ZwG0Br7IU0gkCWTeqF66wKMP907oWvf2J96c92nDfEhDcU0U2ZL4Zz0+nhzRpCn4LK8ks6a42oAOnouLc20lh1VeBp13JruitpRHWz6nHJDIeSBh/Crz4aB2GnvMYFDUjUCKRjUm9Zig7KmYuL+9zvmxNPA8iqoJvex7UNpN2zYeBoh4awURWd6voSgHNqKviBApK8gfTa3DZu1P4kA2/MvvrHp91e+stty0cAHFBEN73As8bKRGz1bRrCxptFUw3VREEG0nPlJut/1vmEAIH3VVYw3qeKbspNHTH7NIQNqiiBdlRegDOKQJKHkoosozhKxj3mKf40gEVFdFPi/GhX0JU00BAum0neBWBV5VojYEDCByBLg2PKkgQfmHn+j4Yq7enwvb3jAL+uiG7K3Ob2xo01d2gI6zZR0SfPRUCAJD+AFLYasrTMvUn7pPbAPKCObla/zaWAz7gPLoR3P5JgYEdDS1TXBSQaWjrbPyAdK/YSZWDwszJnlsnG9+eVVAXdhEw71H2bn/goqSGsVUVXrtgCYIVMwfcXyFprxyYBad0u32f446n9/2pU5mwO7Vw5AeBHiuimTO/L8vTyzjs1hDUGo9oM6agD6fjf5H21XUEaUEU3ZYAnBLfjPpgQPvhEkiHuZV/XjK/xNW0HsvgvAcCCwQv7a7mEhkE/BDCviG56HNfypIntmwYGOzWEktGz2LEVwHJgafoO+71mfOCBtM05fHXih1+bqOUa/mzrOZNMeE0R3XR/0v7nsgV0bNEQSqsou6pDbTBGAcjC/aCI7avzUg6ooptu4JWXH05pCGXiq492MXBPxc+s5toxvEACmI/FO56v51J2mngejDkldFNubcbtVz95pltDWE1Fp3vuIVCPdLayiAPJRC+N/dVvTdZzLX+6Y/UUwK+ooJuSx+0ykny3hrBKmGxtFa2t4EcSSBIDjVxPAg2oopsyrDJESkNYRUVJeH1TBR1INAPI2c5c54sN3V+LzPNgzCiimxKs8j0bBoZ7NITeKrodQLff+VtaA2Qzhs3Ri2f3paYbuaa/3LZ2FsBLiuimTGXa1WGa92oIPcskpeqfDBtBIAkD/lxX7FNFN6t/MTAggrWgaGAgPPcr31/GwJaKBVktIGe74/SyP59y9kUwptXQzWo3uoDJ2HrDX44u1xA6Ym6hcweATumCH3UgiZ8feup3Zvy4tr/ctnYWhL9VRDer3ugSI7kQW9imISwvs311F3xpIBEaIIlpwN8r7JIEKqq6KdP/EqDVmwIB4aov/+VyJrqz4exmVcs2hQNIwtRUrvMVP6/x8vHZlwFMqqCbUufGuOvagbEVGsJCLEDsBJC0Lf+lNpDPY19qzs9rfPChS+fB/IIKuikJfMI0F3ZoCEvlzqUDVWEg/VfRon165CWNom5WOG5RBMyApMpvO4S9D+7vBXC7XNmNIpBlMTmVzL7WjGs91Tn1KoC0Errpdszy9XLu3DAwuEp5CBczi7sAdEgX/sgBaT8GgfbjBw/NN+Naf7j18gViPKeIbsqsEhePmbEdykMIcIrla4nIA0mMfU3+yAdU0U2uen4MmO2f3tRWCJf9zrPnQOA272tMqgE5MZlL/KipF33k3NcAjCmimx77s+309o0Dp1crC2GOM7sAijvLtKpAMvhZ7EstNvOa//L3KMPg5xTRTXut575lLJflHcpCiFLyHWvToMJA+jVWtNqH7jo9KqK6WW2dOAaoza2kbYNw2QN/fS6AzRULciCBRLOAHJ/JJA+04tovX7n6xwDOKqKbEl8MuO3qJ8+sUQ7CXMzYAyAmXRMFBkhqCpDEeLrZKlqMg7dSlsA/VEQ3ZYA3SJi7lIMwn1e0TjX0ABIhBpKJBlp5/c1qKfUjpJuQGaFH7Zve1BYIux8cOJ8It9R7H+UFJIcXyJGZU2sPtvIzuBxrXgcwrIhuum9mZZhp88b/9claZSA0TewBYDS+eEo0gCTgaRy8NdvKz2BfinJAYW2L6OtmGXgu49dFNhffqQyEwm3akq9AIjxA5mOgTV+GA8roZtWJI9y21ZtaDmHXbz1zAYNuqliIfVleLCRAEoamM/E32vHhv/3u+f+bgdNK6KbMiTG++Lm/GLyw1Z9DrOUNMiKXIpCxVCitF8Sj3No2kXhNpR2Q/UOybsUkkO1ZhVxHFyDq+H7iWs6rsKURX0Q88Qq+frjuJi6YnP96YRNgk5Z+M2Bm8+/YzBLMHCGXJZgZQi5D+GhAjPdcZqxcv87jtLnK+5So9aSvG0te2+rgNXBigsnYDeCRSENInqsttRdI00hgfvXFYKPlKytfVPip+4qCTJfFLIoWIADTzEsPsb32JsLoR8ex8qJ1wQSvlk1YckfVtsunym8phC3V0c4vP7MOhE1130c1TVkJC+esaweAPn2zkfe9canBqpRM2PYzPT6NzNycKrop8z5u3PDkqfXRvSc0OJVf4cSS2i8AQJodXTDjnQh1lK4pOda6t9d8TggRi2PixImaGztsjSwIROtmHSfmelwSMHdHFkISzjF6/iye0iiQZiyJkBPoUgPCHUgnqCKGiVNnItG6KVcdVweeuLVJoFoGYedDP7wIjOsrktMmIImzCH00oKQzkzNYnJ1VRTdlTuuG33ji9CXRqwk5u5draf9vFpAurxEL07LNauFTUqLqSio6kD55ShXdrPy9kd+OsmTuiSCE+bGiXPqpAS4/gXTrqjMZHekz0VRSK5zVlFQR3az+vcEg0boZ9y2BMPnbA5eCcK2z0DQEJPwFMjYzjvjksLpKOjWDhZlZNXRTJrEO47oNTw1+KjIQkiHuB0CVlherGUjyH8j49Ag60qdRS2d7eJXUsINoJMpbSaOrm97kWrYTWeyJDIQgIyXPRHuBjM2MIzF+MqQgSigpOWpFWoIyfWZYGd2UyvdI1BcJCBP/bP9lYN4olfgWwQDSmJtEYnQwnI01tvs/FyWFVUntteHs5AwWpqdbqJt11np+6KbcF8g1v/HE4OWhh5DAe6VrIgoOkMbCNJJjx0FsRkdLXVtJLSDGEkifPNlC3eS26qbMcc0WLBwjWlAWUnWpoRSQaCqQYmEOidHjIDOnjJJOnB5SRzdlKssWJIFqKoSJrzz3aYCurq0A1QIkNR1IsTiPxMjHoFwmokoqALFUG85Nz2NhaloV3awIaOHhq6988tQVoYWQTHOv7dsWPiye0gYgRXYRyZHjoOxCNJUU1rGkHZjwUtII6mbV02GAss3NP9NcHXUmz2kTkPABSMplkBw5DpGZDwN9lWtANyUVYklJzwwpo5uuTNq2YzDMB0IJYceDT3+GQBsqc9UaINknIMnMITF6HGJxNoRKispKavmZn1nA/NSUKrq5NB/R/R8A+Mxnf3B8Q+ggjFHsAWm4QgQkmSaSo5/AWJiOnpIW7w2rKGnUdNPjHzsoOdEXOghRSuZU42TbMAAJIDF+Asb8ZLSUtKSlLq2kEdZNSWL3hgrC7q88+zkGrpAGJYxAMpAYP4XY7ESIlZQ8lXRhbhHzk5Oq6KbM/j595WODV4cGQibRV523aADZkT6D+PRYSJUU7q2kwih03J9QRjeljtmkjvvmQMjFFPckyVurgYSvQManhhGfOhsdJS1AOTE0rJJuSgDPe0MBYddDL1zDwOWeJTwQQJLvQManRwtzEgM23rQsxYWkkgoDC/PZgpIqoZsyp3vZZ793cmPgITQpl/J+r9EGMjY7gcR4gKdC1aKkJACj0Eqqim5KZPUn8j9Lt2jCB71H7r1FE0hjfhKJsRMBmoHhpaRUXUlFecd9tHWzykvza9zfD2YKLIRdv/v8dWC6rBIsKgApFmaRGBsEzICM/HZVUki1ki4u5jCXnlBFN93Bsw8XuvTKxwevDSyEORMpewGtDEtlIBFqIMXiHOLpoW8DFKwWGzclJaqspKdOKaObHuDZtzf9zT/jI4RMBEc6gIaApNADKean/ycodwuAwUArKVBRSdNDZz0Wh4mgbsrcRpi0108l9Q3Czn/xwg0ALpEru0oA+fOFv9j5j/jG1e+B6YsAPgivkmYxlx5XRTer749w0We/e+L6wEFoskhJF3wVgLQuf/3whk+Qzd0MxqH214Z1KGksgfTpU77oJkKgmzLAE/mnpD5ByETg3XUV/FABKV3gmZmetj30zc8NozNzK4D/0341raakVN5xf2YYMFF3oW1JreeXbsodM4V+FoGBsPOfP38jgPV1aVuogCRZIH82/4OdH5c92r9xAsn5uwC8HGwlRZmSZrKM2Ynx+htZwqSbcoCu23DeJ5sCAyFIpOTLswJAUoXlr/s/P4sk3QfiNiyR3YiSdiB95lT9jSwh001ItEOB/Jne1DiE/f2CQbvtc9SUBpKRyz5T+ZptWMSH7/5TMB4Lk5Kmz5z1nMoUQd2s0gDMYDJTGGCj7RAmT15zM4ALPQuxakAK8ebck6lPqm63L5XDwxt+D4z/2jYl9Uqb76WkOcbs2Jgquunyr2Un+V8XXDE2eFPbISSulqVYMSDZHKjl6uHhK/8dgK+jZQNOqUItXl1JJ86cUkY32R085/5S7YWwv18wxK66mvFbAqRsefANSBO5+DM1X8c/vfJhgH8f1dsfW6CkVFlJz46ATVZCNyuAZ7mKvKdRJW0IwuSJ6zcDuKAubWsJkI0MmyP38lrxgOInc09uO1nXxfzTq74DxpcBND/BaUUlRUUlzWaB2fFRVXRTBvjzNpw9fkv7akJij1bRiAJZbWEn4n0NXc+Hr/wbMO8EaC64SmrpuK+19kEodbP6/hqccV8/hH0DBgM7q3MRQCDRFCBNgPY3zMfDV70Iwl0ApYOppITJkVEwc/NqvQDpphTwhD2b+znWcggTK7pvA2iNZ8brIANJzQCSD84+vuOUL2x8Y8NPIOi2ps7AkFVSl+W1szlgdnRUFd2UOea5Q2s+2dwGHRUpZ6GsD0hEAkiyjhX1I/7LZ3/V3BkYkkoK5NMgOpV06LQyulltu3zHff2tpPVB2H8gBuIdlUq1PJDkD5BoK5A5sWju952TlszAkFBSFy1Nnx0FF5eNi7puuoFX2nXpgT0bBo52tAzCxOnZ2wGslv2AWwIktRFIxuvTT+1qzoL3zZyB4ZoK0UNJhX1B0RwTZkZGVNFNl92WvXBlbqjr1pZByEypehfgrAokwghkk8eBNm0GBnmD6VRSIjhn3KeHzyijm7Zaz8O3SdTXSlo7hF/9RVyAdrjfwPsAJAUBSNQCZDaGjuea3pDZ1BkYkkpaWrmp0Ep6dhSmaTZHNxEw3ZQaTYBd9ShpzRAmMHInA6s8P8za594FEMiaujx+PP3E1tbkkWnGDIyKSkoVW0lzEJgZPduaGQvt102Z99BrjnTf0XQIpZcPJkWA9LtVtCqIfs/AqKSkKFdSsivpZEFJVdBNKeBN6msuhH/wUoIIO2ou+JEFkjIdHH8OrY6mzMCQbSUtQljsuB8Dm6YquilxXN55yRMfJZsGYWKe7gKwoqGCHyEgCXht8vtb2rQajI8zMBpU0unREVV0U2a75d3Txp1Ng5CEJa9ovfdRvgGJtgPJjAG0O3yZgUHlauqqpC4wGh2Y9Oq4j6JuShwzV2OqfHkIHzyQZIhtcmW7FUBSu4FcmI8ln0MQwtcZGJWUFO5KOuqipJHVTe/tmLl4vO3rvjXY6TuEHYn5rQCW1z73LppAEtEr+O4daQQlGp2BUZeS5jvwTYphenS4fbqJluqmAzwrfKXHly3ryG3xHULBbklt1AWSG5221BQQG5mBUY+SFoA04kgPDbVPN7m1umkHzyNVPsvnJZWD8GtvdjLh3tpaDiMN5Pz8rPECghi+zMCoRUnzWjo1PgHTNFXRTYn90b2ySioFYXJu5gaAemrWtogCycBL+Kutkwhq1DsDg6iCllZqJTVgQmBuclwN3ZTaH/csE5nrfIPQBF8vMzu9cuFHoIFEDUAK8ACCHnXNwHBR0rLr6z6rAkY8v6qvIroptWQ44XrfIGTgwqVaFqgPSAo0kDXMhZyd6+h5EWGIhmZgeKzkZP3snSkRMxl1dFPqCtI63yAkpgV37VURSHoR3751GmGJWmdgyChpaTs7hGR0KKSbUm9pzjcIQTRS/T40LECiISCJzH0IW9Q0A6N+JTUSHcHXTfinm1WPQzzmG4QMOihT8MMBZENTr2bn5uIvIYxR1wyM2pS0e1lv8HWT/dPN6gZpvO4bhJnzf/ILAKdrKfhRBJKBv8FTd80grCE7A6MOJY0nkkh2diqlm1Xi1Hvj69/yT0f7+01m/s81wRI9ILOA+BbCHlIzMNxqwMpKuvqC88qvW8R1s8q5/if0k+kfhAAyF8S/B8IhuUzU0QOSgP+++NiWo4hE1DMDw1tJk12d6F3Vq5xuet8L4tD54x8/Lru9/ADu/luzBot7AfpYrkxHCEjQS/MXdv57RC0qzcCQVNKOjjjWX7wu/79auul1qMG4yG0/2H9r1n8IAcx950snKUe3A/Rz2dTwjQOJtgLJhB8sJHkXario4QLxqu+AxDYQxmpV0s7OBC6++AIYMUM93XQvTj8D0W8e+ZefGkSNJbeOG/wDscRQ9mvM9K9BWLf0rh0XQeqqS54go84rynUcmgHgVwD9x4XvbnkRKsQfH7oQpvEfwPQQgHxfA5uFEm/a/o4bhFW9XVjV2+1dgrixj8e11gP7tz+faz9ifuT88eN/drCOL2tq6Oj9/SJ59sZbTRbXkomLmTxykUpdmOr3sKJZV9sEQMwMGgHjQ1PkDma+s/UtqBj9b/ViLnYnBG0E81qYZhdgIiaQTMREV1cyvrIzGVsNYrJ9MbJJMAu/OZ9sBbkcNVq6fd3OErFk12AimfyogZMbAXCcWPzi2Pj6A7KNMDp06NChQ4cOHTp06NChQ4cOHTp06NChQ4cOHTp06NChQ4cOHTp06NChQ4cOHTp06NChQ4cOHTp06NDRpvj/q6ulOxvIEnQAAAAldEVYdGRhdGU6Y3JlYXRlADIwMjEtMTAtMDlUMTQ6MDY6MzgrMDA6MDBOYIWJAAAAJXRFWHRkYXRlOm1vZGlmeQAyMDIxLTEwLTA5VDE0OjA2OjM4KzAwOjAwPz09NQAAAABJRU5ErkJggg==;" vertex="1" parent="1">
          <mxGeometry x="80" y="30" width="90" height="90" as="geometry" />
        </mxCell>
        <mxCell id="cOocZkf1hTMngWwaIAUV-3" value="" style="verticalLabelPosition=bottom;html=1;verticalAlign=top;align=center;strokeColor=none;fillColor=#00BEF2;shape=mxgraph.azure.virtual_network;pointerEvents=1;" vertex="1" parent="1">
          <mxGeometry x="130" y="970" width="50" height="27.500000000000004" as="geometry" />
        </mxCell>
        <mxCell id="cOocZkf1hTMngWwaIAUV-49" value="&lt;font color=&quot;#000000&quot;&gt;UI&lt;/font&gt;" style="text;html=1;align=center;verticalAlign=middle;whiteSpace=wrap;rounded=0;" vertex="1" parent="1">
          <mxGeometry x="395" y="142" width="110" height="40" as="geometry" />
        </mxCell>
      </root>
    </mxGraphModel>
  </diagram>
</mxfile>
